<svg width="17" height="17" viewBox="0 0 17 17" fill="none" xmlns="http://www.w3.org/2000/svg">
<path fill-rule="evenodd" clip-rule="evenodd" d="M8.56092 15.1838C6.8593 15.1838 5.55034 14.6612 4.26106 13.6623L3.6258 13.0801C3.05123 12.3927 2.91006 12.2464 2.46019 11.3542C1.62251 9.69296 1.60581 7.35517 2.44775 5.68515C2.64569 5.29254 2.78639 5.01817 3.02831 4.66782C3.13632 4.51147 3.25653 4.35707 3.37778 4.21834C3.79046 3.74629 4.1101 3.42299 4.64196 3.04754C4.97611 2.81163 5.26673 2.66 5.6565 2.46404C7.33382 1.62091 9.65687 1.61516 11.3262 2.45091C12.3902 2.98364 13.3409 3.72315 14.002 4.72124C15.045 6.29616 15.449 8.09628 15.0063 10.0249C14.823 10.8233 14.4431 11.6712 13.9801 12.3087L12.8064 13.608C12.6362 13.741 12.5029 13.8467 12.3338 13.9724C12.2393 14.0425 12.184 14.0694 12.0774 14.1346C11.0111 14.7867 9.88923 15.1838 8.56092 15.1838ZM0 8.25966C0 9.76262 0.214285 10.9365 0.798991 12.1023C1.12566 12.7536 1.15018 12.8119 1.56712 13.4266L2.02218 13.9989C2.12247 14.1234 2.15759 14.1658 2.27377 14.28C2.32754 14.3329 2.35771 14.3605 2.40262 14.4175C2.63129 14.7076 3.38365 15.297 3.65286 15.4881C6.70236 17.6533 11.1778 17.494 13.9737 15.0035L14.773 14.2428C15.2581 13.7602 15.988 12.6394 16.2523 11.9936C16.4558 11.4962 16.6583 11.0311 16.7826 10.4314C17.3594 7.65037 16.7919 5.24856 15.0412 3.07356L13.401 1.55575C13.1803 1.40815 13.0125 1.29071 12.7726 1.15692C12.5279 1.02049 12.3311 0.919286 12.0741 0.790105C11.719 0.611532 10.9376 0.32623 10.5301 0.241492C8.80007 -0.118418 7.34671 -0.106098 5.65454 0.483734C5.38268 0.578489 5.18383 0.681649 4.93028 0.786766C4.78002 0.849054 4.72348 0.870008 4.59659 0.947609C4.47603 1.02129 4.37447 1.06482 4.25392 1.13758C3.57456 1.54734 3.60461 1.54849 3.04363 1.98186L1.99454 3.02532C1.58808 3.54457 1.51692 3.62781 1.14846 4.23377C0.500305 5.29979 0.000115145 6.86826 0.000115145 8.25966H0Z" fill="#767676"/>
<path fill-rule="evenodd" clip-rule="evenodd" d="M7.60974 3.57967V8.906C7.60974 9.12326 7.88643 9.51472 8.29462 9.51472H11.8711C12.7086 9.51472 12.7916 8.14508 11.757 8.14508H8.63706V3.61778C8.63706 2.91708 7.60974 2.89532 7.60974 3.57979V3.57967Z" fill="#767676"/>
</svg>
