<svg width="15" height="10" viewBox="0 0 15 10" fill="none" xmlns="http://www.w3.org/2000/svg">
<path fill-rule="evenodd" clip-rule="evenodd" d="M1.18309 4.58281C1.18309 4.47699 1.78783 3.73443 1.95521 3.54603C2.30551 3.1517 2.82127 2.685 3.24836 2.36782C3.38315 2.26773 3.47636 2.19944 3.61854 2.10546C4.44673 1.55808 5.24778 1.21858 6.25388 1.02777C7.34445 0.820935 8.44277 0.933998 9.48273 1.27512C10.0958 1.47623 10.6555 1.77499 11.1383 2.09399C11.461 2.30709 11.8931 2.6252 12.1699 2.90216C12.4394 3.17178 12.3161 3.00421 12.6319 3.35964C12.8288 3.58133 13.5911 4.39355 13.5911 4.58281C13.5911 4.66522 13.0756 5.33154 12.9635 5.4482L12.5166 5.94922C12.4096 6.06495 12.312 6.12078 12.1987 6.23475C12.0868 6.34734 11.9851 6.42968 11.8665 6.53479C11.4689 6.8871 10.671 7.39803 10.1778 7.6069C9.90304 7.72326 9.86951 7.76402 9.50458 7.88353C7.1482 8.65522 4.79215 8.12461 2.92307 6.54817L2.60423 6.26352C2.4874 6.14596 2.37623 6.0771 2.27681 5.95876C2.27297 5.9542 2.26754 5.94769 2.26373 5.94312L1.83952 5.47685C1.70984 5.33857 1.18311 4.68068 1.18311 4.58281H1.18309ZM0 4.5542C0.160261 4.85447 0.860455 5.76475 1.10319 6.00655C1.32697 6.22946 1.54635 6.49485 1.82477 6.75016L2.83609 7.57841C2.98344 7.68813 3.11135 7.77482 3.2604 7.87293C4.34115 8.5843 5.79913 9.15995 7.15624 9.15995C8.35363 9.15995 9.01375 9.05333 10.0418 8.64502C10.7159 8.37732 11.5975 7.88291 12.1263 7.45034C12.6369 7.03268 12.5851 7.0995 13.1073 6.59196C13.653 6.06145 14.428 5.23141 14.7742 4.5828C14.6359 4.32367 14.2288 3.78394 14.015 3.53316C13.018 2.36367 11.7333 1.23506 10.31 0.626636C8.5067 -0.144223 6.5881 -0.227342 4.74875 0.508237C3.96663 0.821011 2.65728 1.58036 2.04138 2.20109C1.96245 2.28063 1.938 2.29133 1.85528 2.35989L0.609755 3.69974C0.408515 3.94982 0.151756 4.26986 0 4.55419L0 4.5542Z" fill="white"/>
<path fill-rule="evenodd" clip-rule="evenodd" d="M4.61693 4.46828C4.61693 5.14337 4.74189 5.65415 5.1196 6.17271L5.41732 6.53551C5.80245 6.95279 6.63771 7.329 7.27167 7.329C7.94705 7.329 8.44861 7.2114 8.9741 6.84261C9.64664 6.37061 10.1573 5.57666 10.1573 4.72575C10.1573 4.03768 10.0452 3.52899 9.65458 2.99272C9.16384 2.31901 8.37749 1.83643 7.50251 1.83643C6.82162 1.83643 6.30628 1.96031 5.78327 2.33476L5.41651 2.62913C5.34958 2.69548 5.33692 2.73091 5.27317 2.8017C5.08872 3.00644 5.00014 3.16717 4.87652 3.40971C4.73667 3.68409 4.61693 4.05783 4.61693 4.4683V4.46828Z" fill="white"/>
</svg>
