<svg width="10" height="13" viewBox="0 0 10 13" fill="none" xmlns="http://www.w3.org/2000/svg">
<path fill-rule="evenodd" clip-rule="evenodd" d="M1.86176 8.11925C2.17695 8.96983 3.48711 12.3712 3.81616 12.9974L6.21709 13L8.1403 8.11925C7.91843 7.89748 7.81332 7.80359 7.52587 7.64148L7.05536 8.1652C6.54127 8.69997 5.79143 9.03822 4.97992 9.03617C4.38703 9.03466 3.87448 8.85515 3.45991 8.60309C3.24889 8.47481 3.04037 8.31694 2.891 8.17753C2.69783 7.99722 2.65081 7.85086 2.45429 7.6689C2.21726 7.76048 2.02287 7.9612 1.86176 8.11925H1.86176Z" fill="#767676"/>
<path fill-rule="evenodd" clip-rule="evenodd" d="M2.54195 4.09045C3.44004 4.30336 3.92302 4.48871 4.97996 4.48984C6.05002 4.491 6.54858 4.31552 7.46941 4.08168C7.52116 5.76796 6.60592 7.65471 5.03033 7.68653C3.2427 7.72262 2.40141 5.46241 2.54195 4.09045ZM8.26546 1.83344C7.56762 1.94944 5.34227 2.57855 4.97921 2.58779C4.64441 2.59633 2.30791 1.93982 1.64533 1.83325C1.63777 2.37557 1.53652 3.14425 1.81843 3.47017C2.00179 3.68219 2.0072 3.52965 2.00076 3.87322C1.90763 8.83731 6.33869 9.53155 7.64897 6.11795C8.25619 4.53602 7.84422 3.84071 8.06937 3.50002C8.3945 3.00801 8.27657 2.7183 8.26546 1.83344Z" fill="#767676"/>
<path fill-rule="evenodd" clip-rule="evenodd" d="M3.23915e-06 1.18314C0.109723 1.26683 0.353916 1.29924 0.517652 1.33969C0.949678 1.44643 0.771294 1.37797 1.08335 1.30504C1.34409 1.2441 4.97416 1.05142 5.12328 1.12565C5.07668 1.39219 4.97891 1.30855 4.34478 1.34497L1.6109 1.51601C1.5199 1.54704 1.53468 1.54166 1.4834 1.57865C1.97347 1.63932 3.91977 2.14147 4.64657 2.31645C5.12871 2.43253 5.29902 2.33347 5.76012 2.22148L9.73022 1.28026C9.77469 1.26928 9.8088 1.26287 9.84976 1.24698L9.96273 1.18937C9.97209 1.18427 9.98798 1.17487 9.99949 1.16601C9.41518 1.01934 5.23861 -0.00551638 4.98312 2.23669e-05C4.79903 0.00400753 0.138192 1.11327 0 1.18314H3.23915e-06Z" fill="#767676"/>
<path fill-rule="evenodd" clip-rule="evenodd" d="M8.4883 8.48999C8.38469 8.62971 6.72995 12.7955 6.7132 12.9974H9.98845C10.1147 11.645 9.17596 9.09821 8.4883 8.48999H8.4883Z" fill="#767676"/>
<path fill-rule="evenodd" clip-rule="evenodd" d="M1.51333 8.50464C1.42397 8.57043 1.48414 8.52008 1.40525 8.6093C0.546647 9.58041 -0.0133705 11.7869 0.00151018 12.9964L3.32187 12.9887L1.51333 8.50464V8.50464Z" fill="#767676"/>
<path fill-rule="evenodd" clip-rule="evenodd" d="M0.945331 3.62822C0.647799 3.86348 0.649393 3.95902 0.798999 4.29015C1.34795 4.44519 1.34292 3.99751 1.24031 3.81277C1.15368 3.65682 1.14026 3.76636 1.04352 3.57832L1.04443 1.47199C1.5928 1.4409 4.79747 1.31929 5.02417 1.18311L2.01049 1.31787C0.510008 1.41065 1.04221 0.998061 0.945335 3.62822H0.945331Z" fill="#767676"/>
<path fill-rule="evenodd" clip-rule="evenodd" d="M1.11718 5.29395C1.25273 5.18889 1.20308 5.24716 1.23497 5.03053C1.28433 5.27592 1.22968 5.22859 1.33227 5.24825C1.43303 5.02775 1.29923 4.64441 1.26208 4.37268C0.83366 4.49552 1.09598 4.42145 0.738001 4.38982C0.70939 4.57673 0.633989 4.87785 0.624233 5.03998C0.603483 5.38419 0.800909 5.29339 1.11718 5.29395Z" fill="#767676"/>
</svg>
