<svg width="156" height="187" viewBox="0 0 156 187" fill="none" xmlns="http://www.w3.org/2000/svg">
<g clip-path="url(#clip0_98_166)">
<path fill-rule="evenodd" clip-rule="evenodd" d="M45.8508 87.4766C46.7343 88.6271 45.1136 89.6809 44.4396 88.8032C44.2679 88.5797 44.1931 88.3108 44.2168 88.0867C44.3427 86.8948 45.6503 87.2155 45.8508 87.4766L45.8508 87.4766ZM47.7525 82.6748C47.7548 82.671 47.6976 82.4359 48.0652 82.5697C48.3742 82.6821 49.111 83.6737 49.0786 83.9271C48.8774 84.4585 47.1955 85.5691 46.5964 85.9601C46.2131 85.4555 46.4686 84.6564 46.6286 83.5939C46.7378 82.8687 47.0545 81.7063 45.9308 81.6167C44.9707 81.54 45.0155 82.4376 44.9134 83.3693C44.8434 84.0082 44.8864 85.2642 44.3679 85.7045L41.8835 82.6257C41.8833 82.6244 42.0641 82.3447 41.4236 82.4848C41.2366 82.5257 40.9773 82.6544 40.7777 82.8874C39.9034 83.9081 41.5405 85.3442 42.526 86.6277C42.184 86.7699 41.9087 86.65 41.5669 86.6052C41.3785 86.5804 41.2795 86.5717 41.0945 86.539L39.8132 86.3522C39.2369 86.2676 38.992 86.304 38.4602 86.7124L37.0188 81.9873C36.8316 81.4542 36.7247 80.922 36.5317 80.3427C36.423 80.0165 36.3638 79.8725 36.2866 79.5545L33.9986 71.6256C33.8928 71.2829 33.8725 71.1158 33.7898 70.8422C33.6177 70.2734 33.4935 69.8482 33.3733 69.2756C33.3123 68.985 33.2472 68.7849 33.1779 68.494C32.8939 67.3018 31.4215 61.832 31.8308 61.3072C31.9588 61.1431 32.3771 61.145 32.6164 61.0815L36.2502 60.1006C36.5764 60.5457 36.3794 60.2946 36.4744 60.7486C36.7319 61.9796 37.5976 64.3199 37.9683 65.5493L38.7539 67.5767C38.8784 67.8803 38.8962 68.0135 39.032 68.3005L40.3039 71.1478C43.02 76.3708 44.0673 77.8756 47.7525 82.6748L47.7525 82.6748ZM41.6894 89.3355L39.8551 90.7441C39.6137 90.4148 39.4062 89.562 39.2487 89.0838C39.1116 88.6678 39.1422 88.9094 39.1167 88.5167C39.6248 88.4837 40.3329 88.6418 40.8777 88.7135C41.7823 88.8326 42.1336 88.6963 42.0888 89.0258C42.0452 89.3468 42.043 89.064 41.6894 89.3355L41.6894 89.3355ZM43.633 90.759C43.8311 91.2357 43.5093 92.0663 43.4515 92.5908L43.4053 93.0658C43.3564 93.5276 43.1613 94.1003 43.4829 94.5192C43.8761 95.0313 44.6302 95.0962 45.1043 94.7321C45.804 94.1948 45.6549 91.8745 45.93 91.0606C46.6853 91.6803 47.8642 94.6783 49.1593 93.6838C49.9126 93.1054 49.9988 92.546 49.2959 91.64C48.8153 91.0207 48.0369 90.1758 47.823 89.7285C48.6585 89.3813 50.6577 90.4677 51.5245 89.8022C52.0199 89.4218 52.1178 88.6762 51.7374 88.1808C51.4065 87.7498 50.4099 87.7659 49.9443 87.7048C49.4422 87.6389 48.4565 87.655 48.0659 87.3551C50.6764 85.3505 50.1105 85.3145 51.0269 86.2638L53.5328 88.6389C54.516 89.5364 56.2721 91.2243 57.29 91.952C57.5715 92.1533 57.6296 92.1657 57.9147 92.4281L67.6204 99.1148C67.9128 99.3056 67.9853 99.3163 68.2598 99.4791L71.5884 101.345C74.9323 103.04 78.3111 104.706 81.8352 106.004L84.9165 107.138C86.8746 107.723 88.2617 108.257 90.3962 108.847C90.6772 108.925 90.7849 108.963 91.0568 109.05L91.1889 109.091C91.2083 109.096 91.2358 109.103 91.2553 109.108L91.3888 109.138C91.5182 109.167 91.5923 109.182 91.7221 109.217C91.9837 109.287 92.1195 109.313 92.3875 109.383C92.5341 109.422 92.5712 109.438 92.719 109.476L97.6702 110.5C97.6897 110.504 97.7174 110.511 97.7369 110.515L106.483 111.95C106.663 111.988 106.711 111.997 106.886 112.021L109.644 112.471C109.664 112.476 109.692 112.482 109.711 112.486L110.984 112.735C111.265 112.797 111.394 112.81 111.655 112.862C111.674 112.866 111.702 112.872 111.722 112.876L119.184 114.667C119.441 114.746 119.579 114.811 119.841 114.893L123.902 116.42L127.183 118.125C128.053 118.62 129.027 119.245 129.77 119.877C129.992 120.065 130.149 120.226 130.388 120.409C130.636 120.599 130.876 120.783 131.07 120.971C133.102 122.931 133.555 123.53 135.313 125.819C136.657 127.57 138.17 130.742 138.683 132.928L139.074 134.423C139.147 134.708 139.109 134.687 139.147 134.913L139.327 135.899C139.366 136.112 139.377 136.206 139.406 136.391L139.547 137.853C139.639 139.241 139.55 140.512 139.438 141.893L139.419 142.097C139.417 142.116 139.414 142.145 139.411 142.164L139.316 142.839C139.314 142.859 139.311 142.887 139.308 142.907C139.306 142.926 139.303 142.955 139.3 142.974L138.995 144.515C138.901 144.843 138.84 145.1 138.759 145.446L138.172 147.293C137.757 148.453 136.884 150.328 136.154 151.358L135.207 152.677C133.46 154.871 132.68 155.543 130.351 157.331C128.671 158.621 126.788 159.407 124.839 160.05C124.57 160.138 124.474 160.13 124.199 160.218C123.973 160.29 123.896 160.33 123.628 160.377C122.163 160.632 120.988 160.929 119.42 161.019L114.159 160.786C114.139 160.783 114.111 160.779 114.092 160.776L113.146 160.652C111.987 160.465 110.792 160.332 109.653 160.032C108.33 159.684 106.958 159.548 105.65 159.119L101.152 157.784C99.6296 157.282 97.3697 156.525 95.912 155.818C95.6557 155.694 95.8375 155.776 95.5867 155.679L94.4826 155.189C92.6278 154.387 90.8668 153.446 89.0595 152.526L86.8834 151.303C85.556 150.589 83.8366 149.424 82.5693 148.568L79.3563 146.344C78.0423 145.475 76.3462 144.008 75.1239 142.986C74.8582 142.764 74.8267 142.779 74.6217 142.624L65.7669 134.167C65.4377 133.822 65.1313 133.406 64.7535 132.987C64.4592 132.661 64.015 132.298 63.7214 131.95L57.8169 124.578C55.5667 121.648 52.8887 117.851 51.0759 114.622C50.6632 113.887 50.189 113.31 49.8488 112.605C49.3017 111.471 48.1099 109.754 47.5828 108.596L45.1066 103.735C44.9162 103.375 44.832 103.053 44.6595 102.714C44.4826 102.367 44.2873 102.063 44.1631 101.756L40.4584 92.9538C40.9188 92.6163 41.1025 92.7058 42.0279 91.9917C42.562 91.5796 43.098 91.1699 43.633 90.7591L43.633 90.759ZM130.782 161.374C132.534 160.029 136.085 157.56 137.486 155.931C138.945 154.235 140.338 152.368 141.396 150.397L143.051 146.766C143.133 146.552 143.18 146.456 143.26 146.243C144.252 143.629 144.646 140.835 144.776 138.058C144.81 137.344 144.749 138.635 144.783 137.921L144.744 136.542C144.739 136.308 144.768 136.276 144.756 135.994L144.614 134.326C144.582 134.081 144.539 134.019 144.5 133.761C144.468 133.548 144.462 133.436 144.426 133.201C144.384 132.927 144.391 132.901 144.331 132.639C144.287 132.446 144.25 132.304 144.206 132.073L143.425 129.221C143.361 129.02 143.224 128.787 143.159 128.637C142.842 127.911 142.594 127.107 142.162 126.306C140.82 123.82 139.026 121.127 136.939 119.19L134.732 117.161C134.365 116.843 134.063 116.669 133.672 116.335C133.332 116.045 133.442 116.117 133.107 115.929L131.967 115.189C131.683 114.988 131.686 114.967 131.398 114.81L125.648 112.017L121.505 110.597C121.248 110.527 121.155 110.498 120.91 110.417C119.364 109.907 117.749 109.641 116.192 109.191C115.196 108.903 114.24 108.831 113.249 108.57L111.037 108.148C111.017 108.144 110.989 108.14 110.969 108.137L97.0466 105.828C96.6231 105.755 96.3208 105.687 95.9042 105.63L95.4343 105.546C95.4148 105.541 95.387 105.535 95.3675 105.531C95.348 105.526 95.3203 105.52 95.3008 105.515C95.2813 105.511 95.2536 105.504 95.2341 105.5C95.2146 105.495 95.1868 105.489 95.1673 105.485L85.184 103.007C83.636 102.456 82.0368 102.006 80.5221 101.349C79.7055 100.996 79.0051 100.702 78.1766 100.37C76.9642 99.8852 75.8407 99.2788 74.6803 98.7345L67.8433 94.8005L61.7196 90.1442C61.5347 89.9938 61.3942 89.9118 61.1581 89.7102C60.9553 89.537 60.8511 89.4039 60.6133 89.1482C60.1346 88.6335 59.5723 88.286 59.0161 87.7043C58.6701 87.3424 58.2127 86.9898 57.9123 86.689L55.7412 84.3817C52.8598 81.1109 50.1196 77.579 47.7092 73.907L46.0868 71.2886C45.2991 69.9407 44.6492 68.5851 43.8504 67.2838L40.6677 60.7495C40.2481 59.9428 39.4368 57.7814 39.0278 56.823L36.9391 51.0508C36.8493 50.7679 36.86 50.71 36.7473 50.4071C36.134 48.7582 35.0515 45.0423 34.7409 43.4086C34.7078 43.2344 34.7397 43.3287 34.6975 43.128L32.3394 31.4788C31.9863 29.1691 31.525 26.8557 31.2586 24.5332L29.9136 15.1475C29.8388 14.5924 29.7238 13.0131 29.4281 12.6096C29.0055 12.9341 29.0496 12.8323 28.8652 13.2917C28.8574 13.3112 28.8473 13.3375 28.8395 13.357L28.7114 13.6838C28.6104 13.9725 28.5208 14.2133 28.4186 14.4701L27.3498 19.2779C27.3101 19.5797 27.272 19.7915 27.2533 20.09L26.8682 25.3999C26.8602 25.5747 26.8589 25.621 26.8363 25.8081C26.792 26.1742 26.8062 26.2699 26.7911 26.6268L26.2552 37.3463C26.2538 37.3743 26.2492 37.4547 26.2476 37.4827C26.2434 37.5585 26.2379 37.6284 26.2349 37.6872L26.216 45.5881C26.2188 45.8809 26.2503 46.1324 26.2461 46.4168C26.2435 46.5959 26.2227 46.6272 26.2334 46.8275L26.3121 48.8995C26.4597 52.8147 26.7093 56.7089 27.0692 60.6134C27.122 61.1869 27.1904 61.7152 27.2167 62.2822L27.5098 64.7947C27.5397 65.16 27.5959 65.3382 27.6258 65.7034L27.9423 68.2191C28.1935 70.4715 28.6665 72.7199 29.0294 74.9594L31.0315 84.3626C31.1176 84.6903 31.2027 84.888 31.2814 85.2201L32.2384 88.6446C32.8164 90.7227 33.5076 92.7203 34.2564 94.7511C34.3302 94.9515 34.3394 95.0594 34.3739 95.1789C34.8064 96.6764 36.4817 100.52 37.1537 102.141C38.0071 104.2 40.0588 108.7 41.1047 110.564L43.0287 114.115C43.6891 115.484 46.5506 120.191 47.4495 121.362L47.2202 121.538L59.1928 137.13C59.5716 136.972 59.4179 136.986 59.7169 137.325C60.7034 138.444 62.3545 140.282 63.3384 141.148L65.4175 143.11C65.7887 143.449 66.159 143.824 66.4554 144.103L74.8944 151.015C75.0748 151.145 75.1935 151.188 75.4015 151.34L82.4317 155.897C82.6512 156.015 82.7624 156.103 82.9407 156.207L84.354 156.958C85.4855 157.652 86.6959 158.214 87.8932 158.791C91.2289 160.4 94.3812 161.533 97.889 162.745L108.63 165.207C108.896 165.267 108.974 165.281 109.235 165.316L112.696 165.645C113.109 165.653 113.4 165.725 113.853 165.731C115.614 165.756 117.363 165.609 119.107 165.498C119.366 165.481 119.477 165.426 119.741 165.382C121.851 165.031 123.745 164.569 125.786 163.829C127.06 163.368 128.341 162.828 129.511 162.159C130.015 161.87 130.282 161.758 130.782 161.374L130.782 161.374Z" fill="#FF9A7A"/>
<path fill-rule="evenodd" clip-rule="evenodd" d="M124.496 147.491C122.69 148.877 121.435 149.342 119.526 149.751C119.307 149.798 119.233 149.832 119.03 149.861C118.281 149.968 117.372 150.019 116.613 149.947L113.799 149.398C112.076 148.76 110.055 147.672 108.927 146.202C107.968 144.954 107.404 144.412 106.825 142.971C105.669 140.093 105.558 137.706 106.56 134.621C106.632 134.396 106.605 134.496 106.685 134.294L106.982 133.577C108.211 131.121 110.383 128.777 113.06 127.807C113.615 127.606 114.085 127.45 114.638 127.305L116.95 126.969L121.718 127.818C121.848 127.87 121.975 127.933 122.108 127.99C122.409 128.121 122.528 128.191 122.817 128.343C125.442 129.724 127.844 132.666 128.518 135.511C128.92 137.208 128.904 137.9 128.841 139.471C128.84 139.491 128.84 139.519 128.839 139.539C128.838 139.559 128.838 139.588 128.837 139.608C128.814 140.234 128.526 141.333 128.329 141.946C127.636 144.105 126.406 146.024 124.496 147.491ZM99.0412 142.98C98.8546 142.737 99.1228 142.434 99.3787 141.787L100.82 138.128C100.896 137.91 100.994 137.722 101.07 137.542L104.179 129.704C104.342 129.292 104.54 128.869 104.678 128.463L106.608 123.562C107.114 123.53 109.163 124.236 109.861 124.432L111.519 124.893C111.905 124.996 112.848 125.212 113.163 125.454C112.819 125.61 112.65 125.591 112.224 125.799C111.023 126.384 110.891 126.227 109.331 127.425C107.496 128.834 106.355 130.073 105.26 132.114C104.577 133.387 104.009 135.217 103.82 136.666C103.634 138.099 103.718 139.393 103.903 140.801C104.12 142.46 104.74 143.688 105.437 145.126C105.618 145.499 106.153 146.182 106.212 146.465C105.92 146.471 104.806 145.861 104.46 145.675L99.0412 142.98L99.0412 142.98ZM96.5804 141.832C96.4467 141.765 96.3413 141.694 96.1952 141.625C96.027 141.547 95.9689 141.525 95.8077 141.436C95.3457 141.182 93.5559 140.425 93.362 140.173C93.1724 139.926 93.3995 139.624 93.6305 139.04L95.9248 133.293C95.9793 133.167 96.006 133.117 96.0426 133.034L100.065 122.91C100.192 122.538 100.337 122.053 100.593 121.742L104.229 122.838C104.253 123.212 104.227 123.1 104.091 123.438L103.752 124.287C103.689 124.447 103.695 124.453 103.627 124.614L100.525 132.316C99.8815 134.12 98.3817 137.606 97.6597 139.431C97.4696 139.912 96.883 141.532 96.5804 141.832L96.5804 141.832ZM90.9012 139.025C90.619 138.896 90.3629 138.772 90.0624 138.609C89.4772 138.292 87.7825 137.594 87.4891 137.271C87.5635 137.051 87.5976 136.969 87.6963 136.749L91.3267 127.604C91.5842 126.951 94.0913 120.445 94.425 120.039C94.8543 120.011 96.7457 120.616 97.4823 120.831C97.8608 120.942 97.8537 120.858 98.1374 121.076C98.1598 121.42 95.7118 127.315 95.5224 127.742C95.3463 128.139 95.2398 128.449 95.079 128.852L91.3589 138.123C91.2054 138.511 91.1306 138.797 90.9012 139.025ZM125.616 149.425C126.798 148.517 127.525 147.66 128.365 146.693C129.065 145.888 130.074 143.784 130.378 142.696L130.982 139.82C131.01 138.349 131.168 138.662 130.961 136.794C130.748 134.872 130.174 133.438 129.25 131.69C128.707 130.663 127.93 129.611 127.084 128.822C126.349 128.137 125.628 127.468 124.784 126.975C122.809 125.822 121.64 125.431 119.362 124.823L108.898 121.823C108.054 121.576 107.306 121.334 106.45 121.096C104.01 120.418 101.504 119.767 99.1004 118.976C98.6547 118.829 98.3512 118.775 97.9059 118.652C95.85 118.083 93.8266 117.355 91.7509 116.851C91.4905 116.788 91.4293 116.79 91.1526 116.698C88.9756 115.97 89.0944 115.9 88.9445 117.395C88.8032 118.804 89.4393 118.423 90.7989 118.868C91.1937 118.997 91.6987 119.047 92.0461 119.314L86.1458 133.933C86.036 134.215 85.408 135.953 85.2398 136.082C84.9574 136.299 84.8011 136.033 84.5091 135.89L83.0904 135.18C82.5935 134.925 82.2566 134.697 81.9782 135.303C81.909 135.453 81.8603 135.655 81.7937 135.836C81.2125 137.421 81.2636 136.935 85.5428 139.009L89.5482 140.955C90.033 141.19 90.4264 141.402 90.9076 141.594L99.5837 145.653C99.7621 145.73 99.7477 145.736 99.906 145.815C100.068 145.897 100.086 145.899 100.295 145.991L101.657 146.615C102.154 146.809 102.548 146.973 103.024 147.195C103.499 147.416 103.846 147.573 104.323 147.77L108.421 149.534C108.682 149.649 108.802 149.705 109.072 149.811C109.243 149.878 109.244 149.887 109.397 149.952C109.576 150.027 109.54 150.005 109.725 150.068L111.222 150.703C112.081 151.08 112.943 151.455 113.843 151.678L115.992 152.064C117.916 152.232 119.87 152.097 121.707 151.453C122.056 151.331 122.179 151.355 122.497 151.2C123.572 150.674 124.628 150.183 125.616 149.425L125.616 149.425Z" fill="#FF9A7A"/>
<path fill-rule="evenodd" clip-rule="evenodd" d="M128.179 154.503C129.687 153.345 129.912 153.246 131.202 151.945C132.438 150.697 133.012 149.795 133.962 148.39C134.327 147.85 134.498 147.377 134.818 146.784C135.025 146.402 135.139 146.13 135.271 145.744L135.68 144.629C135.748 144.416 135.787 144.314 135.861 144.104C136.253 142.988 136.56 141.264 136.609 140.078C136.61 140.049 136.612 139.97 136.613 139.941C136.657 138.914 136.728 137.877 136.608 136.848C136.305 134.271 136.08 133.538 135.197 131.027L134.642 129.855C134.562 129.672 134.499 129.475 134.393 129.272C133.847 128.225 132.997 127.01 132.237 126.22C131.406 125.358 131.274 124.955 130.248 124.091C129.572 123.521 128.941 122.927 128.194 122.467L126.086 121.244C124.697 120.382 121.992 119.711 120.375 119.206C120.355 119.2 120.328 119.192 120.309 119.186C120.289 119.181 120.262 119.173 120.242 119.167C120.223 119.161 120.196 119.154 120.176 119.148L117.465 118.335C114.957 117.523 112.385 116.865 109.847 116.163L97.2294 112.811C97.0097 112.763 96.9168 112.728 96.6973 112.677L91.1576 111.425C90.7448 111.332 90.4868 111.309 90.0802 111.255C88.861 111.093 88.7653 111.092 88.7501 112.352C88.7396 113.219 88.5629 113.632 89.4688 113.818C89.4963 113.824 89.5751 113.84 89.6026 113.846C89.6953 113.865 89.7321 113.872 89.8034 113.887L120.301 122.386C121.187 122.631 121.98 122.88 122.881 123.146C123.374 123.291 123.721 123.407 124.19 123.644L126.053 124.635C126.287 124.779 126.449 124.932 126.682 125.084C126.98 125.279 127.034 125.267 127.315 125.492C130.345 127.919 132.21 130.915 133.255 134.552C133.79 136.414 133.744 138.404 133.61 140.303L133.546 140.913C133.318 142.181 133.022 143.083 132.651 144.301L132.046 145.664C131.959 145.856 131.988 145.831 131.908 145.99L130.957 147.583C130.494 148.33 129.984 148.814 129.4 149.509C127.694 151.538 125.539 152.693 123.196 153.725C122.765 153.914 122.054 154.168 121.614 154.258L120.833 154.45C120.563 154.509 120.269 154.572 119.987 154.61C119.966 154.612 119.938 154.614 119.918 154.616L119.219 154.702C118.962 154.725 118.729 154.757 118.453 154.781C117.633 154.852 116.91 154.797 116.121 154.743L113.761 154.399C113.631 154.363 113.581 154.343 113.429 154.308L113.028 154.221C111.797 153.911 110.518 153.406 109.351 152.918C107.134 151.99 104.865 151.119 102.722 150.018L96.9128 147.151C96.6076 146.991 96.4786 146.943 96.1404 146.753L91.063 144.073C90.7129 143.887 90.6511 143.884 90.2902 143.678L81.6107 139.121C80.9566 138.8 79.0537 137.956 78.6462 137.622C78.2741 137.908 77.2526 139.763 77.4984 140.083C77.8808 140.581 81.2351 142.227 82.036 142.686L87.4444 145.462C87.7304 145.596 87.9246 145.73 88.2164 145.864L105.923 154.425C108.414 155.475 110.257 156.536 112.975 157.24C113.303 157.325 113.468 157.355 113.778 157.407L116.212 157.711C116.794 157.753 117.254 157.783 117.855 157.763C118.162 157.753 118.386 157.75 118.684 157.731L121.203 157.39C122.326 157.153 123.592 156.915 124.634 156.378C125.296 156.037 125.671 155.957 126.393 155.547C126.925 155.246 127.618 154.934 128.179 154.503L128.179 154.503Z" fill="#FF9A7A"/>
<path fill-rule="evenodd" clip-rule="evenodd" d="M80.6988 128.27C79.4356 129.24 79.7035 129.137 78.2359 129.756L76.7261 130.262C75.797 130.463 74.6916 130.47 73.7596 130.349L70.9153 129.504C67.775 128.069 65.5895 124.166 66.0795 120.371L66.2405 119.499C66.2471 119.472 66.2674 119.393 66.2752 119.366L66.978 117.534C68.0193 115.38 69.9745 113.804 72.2478 113.075C75.2834 112.1 78.3969 112.779 80.8005 114.934C81.8886 115.909 81.3549 115.359 82.4184 116.744C82.6594 117.058 82.6447 117.211 82.7724 117.478C83.2773 118.531 83.0253 117.793 83.4117 119.005C83.8032 120.233 83.8887 121.509 83.7264 122.757C83.6612 123.259 83.5301 123.672 83.3908 124.156C82.9895 125.552 81.939 127.318 80.6988 128.27L80.6988 128.27ZM81.6365 131.073C82.8511 130.141 83.9657 129.182 84.7252 127.905C84.9452 127.535 85.0796 127.286 85.2567 126.944C85.9692 125.568 86.4689 124.059 86.5344 122.507C86.6102 120.71 86.5359 118.898 85.7633 117.183C84.4756 114.325 83.4953 113.364 81.0994 111.61C80.8556 111.432 80.8967 111.458 80.653 111.346C78.6417 110.424 79.5885 110.747 77.4451 110.13C77.0397 110.014 76.8552 110 76.4386 109.945C75.5943 109.834 74.4251 109.814 73.5558 109.917C73.2553 109.953 72.8639 109.993 72.5759 110.053C70.0607 110.578 68.2451 111.723 66.3426 113.533C65.6874 114.157 64.8033 115.516 64.402 116.371C63.1725 118.991 62.9334 121.44 63.5501 124.369L63.8472 125.439C64.7875 127.992 66.8359 130.632 69.3066 131.812C71.2032 132.717 72.4144 133.151 74.6185 133.229C74.8388 133.236 74.9629 133.233 75.1681 133.23C76.47 133.212 77.1267 133.041 78.3262 132.731C79.403 132.453 80.7511 131.753 81.6365 131.073L81.6365 131.073Z" fill="#FF9A7A"/>
<path fill-rule="evenodd" clip-rule="evenodd" d="M79.4854 118.146C80.1584 119.022 78.7764 120.387 77.8394 119.167C77.3018 118.466 78.6421 117.047 79.4854 118.146ZM80.0805 123.035C78.9604 123.895 78.0425 122.291 78.8126 121.7C80.0315 120.764 80.9098 122.398 80.0805 123.035ZM76.0146 116.315C76.6381 117.127 76.1028 117.958 75.257 117.898C74.5307 117.846 74.0366 116.741 74.722 116.214C75.1109 115.916 75.74 115.958 76.0146 116.315L76.0146 116.315ZM75.8154 122.543C74.2497 123.745 72.6422 121.578 74.1721 120.403C75.4706 119.406 77.1139 121.546 75.8154 122.543ZM78.2271 126.159C77.5304 126.694 77.221 126.589 76.6821 125.887C76.23 125.298 77.4158 124.02 78.2628 124.836C78.4849 125.05 78.7458 125.76 78.2271 126.159L78.2271 126.159ZM72.4755 118.668C71.1526 119.684 70.4085 117.941 71.1768 117.272C72.0648 116.499 73.417 117.946 72.4755 118.668ZM74.5721 126.778C73.4808 127.616 72.4631 126.089 73.3041 125.444C74.035 124.882 74.3117 125.015 74.8491 125.715C75.0627 125.993 74.8873 126.536 74.5721 126.778L74.5721 126.778ZM70.6044 121.928C69.7235 122.604 68.3641 121.218 69.5835 120.282C69.9054 120.035 71.1709 120.306 70.9645 121.357C70.9182 121.592 70.8375 121.749 70.6044 121.928L70.6044 121.928ZM71.4711 125.272C69.9869 126.411 69.2008 123.462 70.8685 123.58C71.8099 123.647 72.1394 124.759 71.4711 125.272ZM79.3777 127.341C80.2854 126.644 80.9681 125.85 81.3392 125.055C82.1313 123.359 82.4957 121.936 82.0686 120.066C81.5657 117.863 80.4211 116.161 78.3754 115.085C77.6845 114.722 76.7975 114.403 76.074 114.293C75.076 114.141 73.3978 114.193 72.4598 114.601C70.759 115.341 71.6451 114.811 69.8455 116.193C68.9175 116.905 68.0691 118.595 67.7854 119.771C67.5095 120.914 67.4971 122.687 67.9145 123.774C68.4278 125.11 68.2281 124.846 69.2847 126.222C70.0769 127.253 70.2301 127.201 70.9436 127.719C73.3179 129.442 76.9879 129.176 79.3777 127.341Z" fill="#FF9A7A"/>
<path fill-rule="evenodd" clip-rule="evenodd" d="M122.013 144.416C121.581 144.747 121.102 144.962 120.671 145.211C119.97 145.617 118.795 145.926 117.96 145.975C117.16 146.021 116.145 145.945 115.381 145.727C113.25 145.122 111.175 143.352 110.394 141.172C110.031 140.157 109.933 139.786 109.862 138.628C109.843 138.324 109.863 138.297 109.898 138.014C109.917 137.863 109.919 137.818 109.93 137.675L109.97 137.336C110.609 133.593 113.82 130.895 117.252 130.95L117.389 130.954C118.153 130.987 118.12 130.935 118.815 131.086C121.342 131.638 122.272 132.569 123.79 134.546C124.537 135.52 125.051 137.717 124.888 139.02L124.512 140.895C124.441 141.111 124.395 141.27 124.291 141.485C123.744 142.609 123.027 143.637 122.013 144.416L122.013 144.416ZM111.508 130.735C109.823 132.028 108.67 133.704 108.151 135.517C108.052 135.864 107.97 136.008 107.913 136.379L107.727 137.66C107.631 138.667 107.717 140.223 108.049 141.139C108.096 141.268 108.15 141.394 108.201 141.571C109.203 145.047 112.467 147.594 116.104 148.072C117.059 148.198 118.103 148.241 119.063 148.042C120.005 147.846 121.512 147.454 122.31 146.864C122.715 146.564 123.012 146.425 123.288 146.225L124.84 144.718C125.256 144.14 125.598 143.731 125.933 143.144C127.032 141.213 127.359 138.496 126.86 136.324C126.785 136 126.783 135.851 126.635 135.47C126.487 135.088 126.439 134.805 126.299 134.532C125.354 132.693 125.569 133.091 124.491 131.823C123.545 130.711 121.154 129.263 119.636 129.017C119.474 128.991 119.393 128.995 119.231 128.964C116.5 128.431 113.767 129 111.508 130.735L111.508 130.735Z" fill="#FF9A7A"/>
<path fill-rule="evenodd" clip-rule="evenodd" d="M118.064 137.849C118.928 138.974 117.326 139.895 116.73 139.117C115.814 137.925 117.438 137.034 118.064 137.849ZM112.649 142.98C114.046 142.264 115.363 141.014 115.74 140.845C116.039 140.711 115.819 140.79 116.001 140.77C116.343 141.186 116.201 141.026 116.079 141.993C116.021 142.451 115.98 142.706 115.924 143.207C115.758 144.668 115.567 144.679 116.764 145.035C117.508 144.594 117.527 144.437 117.631 143.01C117.657 142.658 117.687 141.374 117.934 141.137C118.28 140.804 118.061 141.036 118.2 141.022C119.188 141.445 120.084 144.619 121.365 143.727C122.163 143.17 121.494 142.471 121.039 141.883C120.883 141.682 119.619 140.161 119.65 139.914C119.65 139.912 119.516 139.63 120.091 139.642C121.015 139.661 123.783 140.742 123.942 139.232C124.041 138.3 122.652 138.308 122.061 138.241C121.612 138.189 120.039 138.106 119.807 137.801C120.224 137.138 121.69 136.304 122.372 135.69C122.738 135.361 122.688 135.23 122.806 134.841C121.683 133.169 121.367 134.733 118.81 136.287C118.423 135.87 118.514 135.874 118.647 135.109C119.049 132.813 119.291 132.224 118.032 131.906C117.348 132.346 117.413 132.256 117.31 132.869L117.134 133.951C116.98 135.038 117.137 135.613 116.53 135.978C115.192 134.341 114.31 132.473 113.339 133.276C113.12 133.457 113.047 133.546 113.022 133.882C112.981 134.426 114.381 135.939 114.787 136.484C115.662 137.662 114.26 137.203 112.88 137.031C112.274 136.956 111.093 136.551 110.872 137.524C110.468 139.307 114.142 138.295 114.823 139.245C114.759 139.398 114.897 139.223 114.68 139.468C114.178 140.034 112.106 141.216 111.989 141.798C111.837 142.555 112.471 142.355 112.108 142.909C112.416 142.91 112.068 142.927 112.372 142.992C112.651 143.051 112.475 143.097 112.649 142.98L112.649 142.98Z" fill="#FF9A7A"/>
<path fill-rule="evenodd" clip-rule="evenodd" d="M51.0771 91.1178C50.7369 91.3791 50.1982 92.3466 50.6349 92.9153C51.1381 93.5706 51.5422 93.8116 52.2501 94.2231C52.663 94.4631 53.1487 94.7806 53.582 95.071L60.102 99.3254C60.3955 99.543 60.4855 99.5394 60.7394 99.7046L61.4353 100.162C62.2983 100.669 63.1306 101.326 64.03 101.861L68.5919 104.803C69.3355 105.194 69.687 105.858 70.7089 105.474C71.1942 105.291 72.6491 103.93 70.3265 102.583L69.6303 102.128C69.3868 101.962 69.2645 101.921 68.9944 101.737C68.845 101.635 68.7802 101.578 68.6808 101.508L66.9704 100.403C66.553 100.136 66.1296 99.8374 65.703 99.5873C65.46 99.4449 65.3581 99.3622 65.0719 99.1599C64.7865 98.9582 64.6702 98.9223 64.3733 98.7233L54.8739 92.559C54.7334 92.4788 54.7882 92.5348 54.554 92.3786C53.4212 91.623 52.0534 90.3681 51.0771 91.1178L51.0771 91.1178Z" fill="#FF9A7A"/>
<path fill-rule="evenodd" clip-rule="evenodd" d="M57.8935 117.716C58.2899 117.412 58.433 117.382 58.5384 116.77C58.6685 116.013 58.2068 115.64 57.8073 114.612C57.6212 114.133 57.3096 113.659 57.0976 113.144L50.0017 98.3303C49.2808 96.9582 48.7 94.4013 46.737 95.9086C45.7806 96.643 46.7604 97.9668 46.9598 98.4807L48.5406 101.85C48.6541 102.102 48.7677 102.28 48.8833 102.513L50.5153 105.889C50.6881 106.216 50.696 106.312 50.8244 106.617L52.1525 109.334C52.279 109.646 52.2069 109.585 52.437 109.99L56.1956 117.562C56.5591 118.035 57.447 118.059 57.8935 117.716L57.8935 117.716Z" fill="#FF9A7A"/>
<path fill-rule="evenodd" clip-rule="evenodd" d="M64.73 113.803C65.2689 113.389 65.4926 112.581 65.0957 112.064L51.4798 94.3321C50.829 93.4845 49.123 94.2356 49.167 95.4717C49.1963 96.2945 55.3901 104.013 56.0713 104.9L62.3504 113.083C62.9682 113.886 63.7468 114.558 64.73 113.803L64.73 113.803Z" fill="#FF9A7A"/>
<path fill-rule="evenodd" clip-rule="evenodd" d="M41.1983 79.9932C42.1832 79.2369 41.4127 77.8228 40.8802 76.3777L39.9697 73.6466C39.7428 72.9167 39.4398 72.1165 39.2127 71.4168L38.0937 68.1772C37.8283 67.3428 36.3326 62.8974 36.1249 62.6269C35.6013 61.945 33.6124 62.0044 33.6409 63.5378C33.6498 64.0113 34.4351 66.2362 34.6403 66.7617C35.2803 68.4004 36.2177 71.451 36.8695 73.3083L38.7237 78.7061C38.9656 79.3661 39.0411 80.3326 40.1214 80.3436C40.4869 80.3474 40.7795 80.3147 41.1983 79.9932L41.1983 79.9932Z" fill="#FF9A7A"/>
<path fill-rule="evenodd" clip-rule="evenodd" d="M112.649 142.98C113.143 143.312 113.47 142.835 114.336 142.171C114.617 141.955 114.899 141.74 115.177 141.52C116.443 140.524 115.795 141.309 115.552 144.117C115.443 145.375 117.407 145.818 117.718 144.402C117.905 143.553 117.905 141.785 118.22 141.375C118.801 142.132 119.385 142.939 119.979 143.678C120.275 144.045 120.601 144.186 120.946 144.165C121.303 144.144 121.735 143.851 121.915 143.51C122.288 142.8 121.612 142.153 120.976 141.324C120.827 141.131 120.173 140.326 120.119 140.171C119.969 139.743 120.595 139.999 120.869 140.04C121.552 140.141 122.214 140.238 122.896 140.309C123.181 140.339 123.648 140.344 123.932 140.002C124.072 139.834 124.232 139.229 124.193 138.997C123.947 137.536 120.941 138.301 120.297 137.593C120.819 137.192 122.947 135.775 123.058 135.206C123.148 134.75 122.995 134.195 122.426 133.95C121.228 133.435 120.078 135.322 118.947 135.835C118.799 135.479 118.932 135.165 118.979 134.808C119.153 133.496 119.588 132.298 118.656 131.778C118.351 131.608 117.921 131.618 117.616 131.773C117.152 132.007 117.106 132.361 117.054 132.7L116.782 134.795C116.655 135.847 116.735 135.789 115.517 134.216C115.207 133.816 114.962 133.363 114.76 133.185C113.552 132.12 112.238 133.5 112.989 134.571C113.535 135.35 114.229 136.177 114.816 136.942C113.804 137.362 111.044 135.692 110.588 137.486C110.501 137.827 110.615 138.259 111.02 138.595C111.615 139.088 113.892 138.878 114.438 139.297C113.483 140.462 110.701 141.077 112.108 142.909C112.471 142.355 111.837 142.555 111.989 141.798C112.106 141.216 114.178 140.034 114.68 139.468C114.897 139.223 114.759 139.398 114.823 139.245C114.142 138.295 110.468 139.307 110.872 137.524C111.093 136.551 112.274 136.956 112.88 137.031C114.26 137.203 115.662 137.662 114.787 136.484C114.381 135.939 112.981 134.426 113.022 133.882C113.047 133.546 113.12 133.457 113.339 133.276C114.31 132.473 115.192 134.341 116.53 135.978C117.137 135.613 116.98 135.038 117.135 133.951L117.31 132.869C117.413 132.256 117.348 132.346 118.032 131.906C119.291 132.224 119.049 132.813 118.647 135.109C118.514 135.874 118.423 135.87 118.81 136.287C121.367 134.733 121.683 133.169 122.806 134.841C122.689 135.23 122.738 135.361 122.373 135.69C121.69 136.304 120.224 137.138 119.807 137.801C120.039 138.106 121.612 138.189 122.061 138.241C122.652 138.308 124.041 138.3 123.942 139.232C123.783 140.742 121.015 139.661 120.091 139.642C119.516 139.63 119.651 139.912 119.65 139.914C119.619 140.161 120.883 141.682 121.039 141.883C121.494 142.471 122.163 143.17 121.365 143.727C120.084 144.619 119.188 141.445 118.2 141.022C118.061 141.036 118.28 140.804 117.934 141.137C117.687 141.374 117.657 142.658 117.631 143.01C117.527 144.437 117.508 144.594 116.764 145.035C115.567 144.679 115.758 144.668 115.924 143.207C115.98 142.706 116.021 142.451 116.079 141.993C116.201 141.026 116.343 141.186 116.001 140.77C115.819 140.79 116.039 140.711 115.74 140.845C115.363 141.014 114.046 142.264 112.649 142.98Z" fill="#FF9A7A"/>
</g>
<defs>
<clipPath id="clip0_98_166">
<rect width="179.772" height="72.8574" fill="white" transform="translate(97.4875 187) rotate(-127.52)"/>
</clipPath>
</defs>
</svg>
