<svg width="263" height="199" viewBox="0 0 263 199" fill="none" xmlns="http://www.w3.org/2000/svg">
<g clip-path="url(#clip0_98_86)">
<path fill-rule="evenodd" clip-rule="evenodd" d="M175.331 88.8359C173.426 88.0077 174.725 85.5632 176.178 86.195C176.548 86.3559 176.829 86.6408 176.955 86.9379C177.624 88.5182 175.763 89.0238 175.331 88.8359L175.331 88.8359ZM176.281 96.1702C176.281 96.1765 176.515 96.4313 175.962 96.5188C175.497 96.5924 173.886 95.8615 173.751 95.5216C173.634 94.7164 174.97 92.1583 175.449 91.2528C176.28 91.6189 176.514 92.7971 177.051 94.2391C177.417 95.2232 177.827 96.899 179.297 96.2316C180.553 95.6614 179.874 94.5683 179.355 93.3303C179 92.4815 178.074 90.938 178.418 90.0267L183.666 92.1596C183.667 92.161 183.635 92.6367 184.34 92.0169C184.546 91.836 184.782 91.4948 184.87 91.0645C185.257 89.1793 182.21 88.5162 180.085 87.5924C180.415 87.1769 180.843 87.1361 181.302 86.9551C181.555 86.8554 181.685 86.7976 181.939 86.7102L183.674 86.0552C184.455 85.7613 184.736 85.5457 185.119 84.6653L190.203 89.5839C190.807 90.1217 191.31 90.7142 191.954 91.306C192.317 91.6391 192.491 91.7784 192.808 92.1231L201.175 100.467C201.546 100.823 201.687 101.019 201.98 101.304C202.591 101.897 203.041 102.343 203.589 102.977C203.867 103.299 204.088 103.504 204.376 103.821C205.559 105.117 211.199 110.947 211.05 111.888C211.004 112.183 210.478 112.471 210.223 112.716L206.352 116.466C205.634 116.135 206.055 116.313 205.621 115.81C204.444 114.447 201.736 112.116 200.419 110.833L198.028 108.839C197.662 108.545 197.547 108.39 197.178 108.125L193.609 105.441C186.583 100.783 184.227 99.6247 176.281 96.1702L176.281 96.1702ZM179.254 83.62L180.574 80.5829C181.105 80.8279 181.957 81.7522 182.486 82.2419C182.946 82.6678 182.74 82.3864 183.045 82.8607C182.431 83.2545 181.434 83.5478 180.702 83.836C179.487 84.3145 179.141 84.729 178.969 84.285C178.8 83.8527 178.999 84.2054 179.254 83.6201L179.254 83.62ZM175.832 83.1854C175.253 82.7258 175.08 81.4621 174.788 80.7651L174.516 80.138C174.257 79.5256 174.104 78.6728 173.411 78.3713C172.563 78.0027 171.573 78.4446 171.232 79.2296C170.728 80.3881 172.525 83.1911 172.745 84.4014C171.369 84.1493 167.812 81.2119 166.88 83.3562C166.338 84.6034 166.618 85.364 168.127 86.011C169.159 86.4533 170.72 86.9717 171.298 87.3835C170.493 88.3981 167.234 88.4244 166.611 89.8594C166.254 90.6797 166.649 91.6815 167.469 92.0382C168.182 92.3484 169.42 91.6367 170.045 91.3903C170.72 91.1245 171.943 90.4203 172.641 90.5251C170.762 94.8472 171.496 94.4997 169.689 93.9465L164.902 92.7101C163.048 92.268 159.677 91.3723 157.897 91.1669C157.405 91.1102 157.323 91.1349 156.784 91.004L139.987 89.3623C139.489 89.3262 139.39 89.3632 138.933 89.3497L133.469 89.3215C128.105 89.519 122.717 89.7768 117.401 90.5956L112.755 91.3137C109.896 91.9385 107.789 92.2331 104.705 92.9744C104.299 93.0719 104.138 93.0992 103.737 93.1786L103.543 93.2193C103.515 93.2261 103.476 93.2362 103.448 93.2435L103.26 93.2989C103.078 93.3515 102.975 93.3846 102.788 93.4309C102.411 93.5242 102.223 93.5862 101.839 93.6843C101.629 93.7379 101.571 93.7428 101.36 93.7987L94.4472 95.9515C94.4198 95.9595 94.3804 95.9702 94.353 95.9783L82.4022 100.249C82.1491 100.326 82.0844 100.349 81.8484 100.44L78.0803 101.79C78.0529 101.798 78.0137 101.809 77.9863 101.817L76.2187 102.389C75.8237 102.506 75.6534 102.579 75.2908 102.695C75.2636 102.704 75.2245 102.715 75.1973 102.724L64.6078 105.658C64.2313 105.738 64.0129 105.752 63.6271 105.831L57.4816 106.736L52.1886 106.877C50.7555 106.86 49.1018 106.753 47.7317 106.478C47.3235 106.395 47.0159 106.303 46.5892 106.239C46.1472 106.174 45.7183 106.109 45.345 106.009C41.4387 104.963 40.4563 104.527 36.6661 102.879C33.7681 101.62 29.6712 98.696 27.5127 96.3131L25.9847 94.7128C25.6957 94.4064 25.7583 94.4059 25.554 94.1483L24.644 93.0387C24.4478 92.799 24.3691 92.6892 24.2044 92.4777L23.0127 90.7449C21.9342 89.0698 21.1644 87.4147 20.3465 85.6079L20.2283 85.3398C20.2174 85.3136 20.2019 85.2758 20.1913 85.2495L19.8428 84.3381C19.8321 84.3118 19.8156 84.2744 19.8052 84.2481C19.7947 84.2218 19.7791 84.184 19.7689 84.1575L19.0826 82.0159C18.972 81.5398 18.8697 81.1755 18.7312 80.6861L18.1851 77.9648C17.9011 76.2246 17.6922 73.2699 17.8932 71.473L18.164 69.164C18.8294 65.2033 19.3413 63.8207 21.0177 59.9647C22.2264 57.1844 24.0399 54.8925 26.035 52.7356C26.3111 52.4371 26.437 52.3816 26.7207 52.0802C26.9529 51.8335 27.0223 51.7299 27.3254 51.4855C28.9836 50.1484 30.2494 48.9622 32.1506 47.7617L38.9024 44.4028C38.929 44.393 38.9673 44.3788 38.9937 44.3684L40.2645 43.8674C41.8454 43.2974 43.4355 42.6351 45.0691 42.2208C46.9686 41.7391 48.7812 40.9571 50.7178 40.5873L57.278 39.1379C59.5333 38.7106 62.889 38.0905 65.2057 37.9651C65.613 37.943 65.3283 37.9662 65.7098 37.9137L67.4324 37.7607C70.3126 37.4791 73.1711 37.4355 76.0736 37.3345L79.6478 37.3561C81.8058 37.3294 84.7677 37.5956 86.9496 37.7891L92.5172 38.3456C94.7661 38.5225 97.9086 39.1835 100.149 39.6151C100.636 39.709 100.665 39.6684 101.029 39.7206L117.988 44.169C118.64 44.373 119.312 44.6818 120.076 44.9441C120.671 45.1485 121.48 45.2952 122.089 45.5271L134.599 50.6642C139.451 52.7736 145.44 55.6719 149.952 58.459C150.979 59.0934 151.973 59.4863 152.888 60.1337C154.36 61.1749 157.044 62.4984 158.508 63.5828L164.982 67.9536C165.471 68.2732 165.8 68.6176 166.251 68.9221C166.713 69.2343 167.169 69.4797 167.538 69.7784L178.285 78.2336C177.943 78.9758 177.651 78.9911 176.987 80.5277C176.604 81.4144 176.217 82.2996 175.832 83.1854L175.832 83.1854ZM17.6724 55.2001C16.4115 58.1005 13.6763 63.6572 13.0516 66.6686C12.4009 69.8056 11.9503 73.1111 11.9932 76.3143L12.4402 82.0109C12.4854 82.3356 12.4938 82.4886 12.5403 82.8105C13.1118 86.7737 14.5566 90.5469 16.3202 94.1156C16.7736 95.0331 15.9543 93.3739 16.4064 94.2914L17.4128 95.9923C17.5808 96.2823 17.567 96.3428 17.7788 96.6871L19.1134 98.6782C19.323 98.9623 19.42 99.0105 19.6476 99.3067C19.8355 99.5514 19.9208 99.6878 20.1287 99.9561C20.3726 100.271 20.3808 100.309 20.6377 100.595C20.8277 100.806 20.9718 100.958 21.188 101.217L24.1436 104.247C24.3642 104.454 24.697 104.652 24.8834 104.795C25.7834 105.484 26.6522 106.319 27.7487 107.022C31.1548 109.206 35.2701 111.333 39.2283 112.312L43.4015 113.322C44.081 113.466 44.5797 113.474 45.3024 113.621C45.9295 113.749 45.7406 113.735 46.2923 113.738L48.2332 113.873C48.7276 113.929 48.7387 113.957 49.2087 113.954L58.349 113.463L64.524 112.367C64.8946 112.276 65.0314 112.249 65.3941 112.18C67.684 111.746 69.8921 110.958 72.1551 110.441C73.6022 110.111 74.849 109.539 76.2717 109.178L79.336 108.172C79.3628 108.162 79.401 108.148 79.4278 108.139L98.4698 101.371C99.0505 101.168 99.4769 101.044 100.038 100.825L100.685 100.606C100.713 100.597 100.752 100.586 100.779 100.578C100.807 100.57 100.846 100.559 100.874 100.551C100.901 100.543 100.94 100.532 100.968 100.524C100.995 100.516 101.034 100.505 101.062 100.496L115.286 96.6737C117.608 96.2899 119.923 95.744 122.276 95.5151C123.544 95.3917 124.626 95.274 125.893 95.1142C127.749 94.8804 129.577 94.8604 131.408 94.7371L142.701 94.9211L153.603 96.5048C153.939 96.565 154.172 96.5702 154.607 96.6589C154.981 96.7351 155.204 96.8296 155.68 96.9849C156.636 97.2975 157.582 97.3425 158.682 97.6853C159.367 97.8985 160.184 98.0229 160.769 98.1911L165.09 99.5749C170.968 101.673 176.851 104.196 182.418 107.123L186.267 109.277C188.189 110.419 189.944 111.666 191.847 112.742L200.368 118.718C201.453 119.438 203.969 121.582 205.146 122.499L211.768 128.28C212.077 128.572 212.103 128.652 212.455 128.953C214.367 130.593 218.301 134.497 219.824 136.328C219.986 136.523 219.881 136.427 220.073 136.649L231.109 149.605C233.154 152.253 235.337 154.831 237.282 157.555L245.479 168.378C245.958 169.022 247.198 170.92 247.848 171.22C248.152 170.521 248.168 170.679 248.08 169.976C248.076 169.946 248.071 169.906 248.067 169.876L248.001 169.378C247.927 168.946 247.872 168.582 247.822 168.19L245.825 161.426C245.665 161.02 245.566 160.728 245.382 160.341L242.18 153.423C242.069 153.198 242.039 153.14 241.937 152.89C241.739 152.4 241.654 152.29 241.426 151.833L234.659 138.034C234.642 137.997 234.592 137.894 234.574 137.857C234.527 137.759 234.485 137.668 234.448 137.592L228.99 127.683C228.783 127.318 228.569 127.024 228.377 126.665C228.256 126.439 228.261 126.386 228.108 126.142L226.572 123.601C223.67 118.8 220.656 114.095 217.496 109.454C217.032 108.772 216.58 108.158 216.153 107.466L214.043 104.522C213.752 104.085 213.558 103.901 213.267 103.464L211.125 100.532C209.248 97.8853 207.095 95.3971 205.087 92.8437L196.055 82.4543C195.719 82.1035 195.476 81.9149 195.147 81.5535L191.572 77.928C189.406 75.726 187.154 73.7033 184.807 71.679C184.576 71.4793 184.489 71.3505 184.363 71.2247C182.782 69.6491 178.017 65.9965 176.05 64.4321C173.553 62.4451 167.861 58.2324 165.257 56.6238L160.383 53.5102C158.606 52.2535 151.756 48.3428 149.818 47.5001L149.983 47.1205L124.167 35.8971C123.802 36.3572 123.985 36.2334 123.375 36.0159C121.363 35.2985 118.02 34.1416 116.186 33.7395L112.221 32.7251C111.521 32.5582 110.797 32.3451 110.232 32.2013L94.8652 29.3987C94.5487 29.3604 94.3708 29.3899 94.0045 29.3433L82.0368 28.5132C81.6799 28.5178 81.4791 28.4838 81.1838 28.4777L78.8922 28.5172C76.9935 28.4332 75.0876 28.5695 73.1872 28.677C67.8928 28.9764 63.1578 29.744 57.9231 30.6601L42.7601 35.0289C42.3854 35.138 42.2782 35.1744 41.9278 35.312L37.363 37.3012C36.8408 37.5777 36.4259 37.6901 35.8541 37.9964C33.6315 39.1869 31.5427 40.5837 29.4351 41.9339C29.1218 42.1347 29.0218 42.2799 28.7215 42.5182C26.3224 44.422 24.2702 46.3145 22.2262 48.6579C20.9515 50.1195 19.7205 51.6845 18.7202 53.3345C18.2885 54.0467 18.032 54.3723 17.6723 55.1998L17.6724 55.2001Z" fill="#FF9A7A"/>
<path fill-rule="evenodd" clip-rule="evenodd" d="M35.1788 68.2292C36.4785 65.2396 37.7283 63.7869 39.8358 61.9489C40.0771 61.7384 40.1456 61.645 40.3803 61.4674C41.2447 60.8132 42.3478 60.1194 43.3479 59.6835L47.2543 58.4189C49.8557 58.0217 53.1414 57.9828 55.5744 59.0406C57.6411 59.9391 58.7244 60.2267 60.4486 61.6297C63.8941 64.4334 65.6896 67.3453 66.5754 71.9055C66.6398 72.2373 66.6053 72.0932 66.6448 72.4025L66.7713 73.5062C66.9356 77.4346 65.8403 81.8783 63.1603 84.9511C62.6054 85.5874 62.1239 86.1096 61.5319 86.6741L58.8689 88.699L52.3075 90.9441C52.1088 90.9699 51.9068 90.9786 51.6998 90.9986C51.2326 91.044 51.0337 91.0391 50.5661 91.0491C46.3208 91.1399 41.2706 89.1211 38.4523 86.0261C36.7707 84.1794 36.3118 83.3015 35.3002 81.2902C35.2873 81.2647 35.2682 81.2286 35.2551 81.2031C35.2422 81.1776 35.2227 81.1417 35.2098 81.1161C34.8038 80.3154 34.4029 78.7379 34.2242 77.8339C33.5943 74.6482 33.8036 71.3922 35.1788 68.2292ZM70.1929 56.2178C70.5952 56.3927 70.4698 56.9587 70.5976 57.946L71.3308 63.5299C71.3871 63.8551 71.3954 64.1583 71.4251 64.4367L72.9688 76.413C73.0503 77.0424 73.0962 77.7095 73.2047 78.3126L74.1879 85.7906C73.5766 86.183 70.5199 86.7195 69.5095 86.959L67.1131 87.5312C66.5576 87.6706 65.2272 88.0542 64.6641 87.9696C64.987 87.535 65.2108 87.442 65.6005 86.8862C66.6992 85.3192 66.9742 85.4246 68.0972 82.8417C69.4179 79.8038 69.9873 77.4593 69.9426 74.1445C69.9148 72.0747 69.3564 69.3884 68.5871 67.4424C67.8264 65.518 66.8228 63.9558 65.6156 62.3208C64.192 60.3928 62.5628 59.2856 60.693 57.9678C60.2073 57.6255 59.0637 57.1416 58.7929 56.8287C59.1541 56.6179 60.973 56.6094 61.5351 56.6018L70.1929 56.2177L70.1929 56.2178ZM74.0717 55.9481C74.2861 55.9401 74.4675 55.956 74.6978 55.9401C74.963 55.9219 75.0511 55.9092 75.3146 55.9085C76.0698 55.9064 78.8366 55.6122 79.2546 55.7939C79.6635 55.9718 79.5883 56.5071 79.7044 57.3995L80.8177 66.1896C80.837 66.3853 80.838 66.4662 80.8502 66.5963L82.8358 82.0691C82.9347 82.6226 83.0894 83.33 82.9854 83.8978L77.6705 85.0478C77.3803 84.5956 77.4903 84.7178 77.4263 84.2002L77.2621 82.9016C77.2303 82.6568 77.2184 82.6541 77.1923 82.4048L75.7337 70.6046C75.2877 67.8988 74.7477 62.4919 74.3857 59.7047C74.2904 58.9708 73.9014 56.5349 74.0717 55.9482L74.0717 55.9481ZM83.1334 55.5243C83.5766 55.4903 83.9832 55.4676 84.4727 55.4632C85.4258 55.4544 88.0329 55.1529 88.6243 55.3536C88.6839 55.681 88.6979 55.8072 88.7274 56.152L90.525 70.1258C90.6549 71.1216 92.0288 81.0107 91.893 81.7519C91.3746 82.0846 88.5858 82.6392 87.5134 82.8801C86.9624 83.0039 87.0298 83.1046 86.5231 83.0284C86.256 82.6122 85.2323 73.5299 85.1732 72.8634C85.1183 72.244 85.037 71.7825 84.9584 71.1652L83.186 56.9718C83.1089 56.3789 83.0043 55.969 83.1334 55.5243ZM32.4333 66.5841C31.5825 68.5409 31.2667 70.1191 30.8849 71.9133C30.567 73.4078 30.7623 76.7426 31.1365 78.3162L32.3761 82.3373C33.3617 84.2005 32.9467 83.9169 34.5024 86.114C36.1021 88.373 37.8166 89.772 40.187 91.3203C41.5797 92.2301 43.282 93.0086 44.8891 93.4095C46.2852 93.7577 47.6533 94.096 49.0522 94.1276C52.3258 94.2015 54.0614 93.88 57.3363 93.0608L72.5262 89.5587C73.7545 89.2822 74.8593 89.0665 76.0959 88.7705C79.6235 87.9262 83.2142 87.0041 86.7739 86.327C87.4339 86.2015 87.8517 86.0587 88.495 85.9041C91.4648 85.19 94.5042 84.6975 97.4543 83.8893C97.8245 83.7879 97.8993 83.7424 98.3102 83.6662C101.542 83.0673 101.442 83.2373 100.592 81.2609C99.7917 79.398 99.259 80.316 97.2476 80.7028C96.6635 80.815 95.996 81.1022 95.3757 81.0089L92.6228 58.6024C92.5649 58.1734 92.1455 55.5605 92.2666 55.2819C92.4699 54.8144 92.8507 55.0401 93.3154 55.0161L95.5854 54.9215C96.3842 54.8952 96.9649 54.9479 96.8932 53.9957C96.8753 53.7589 96.7966 53.473 96.7541 53.1994C96.3824 50.8107 96.6555 51.4547 89.8567 51.8268L83.4891 52.168C82.7185 52.2093 82.079 52.2174 81.3431 52.311L67.6587 53.2458C67.3817 53.273 67.3959 53.2563 67.1424 53.2663C66.8824 53.2766 66.8584 53.2862 66.533 53.3165L64.3946 53.4789C63.6372 53.582 63.0296 53.6492 62.2801 53.7016C61.5307 53.7539 60.9877 53.7986 60.254 53.8827L53.8968 54.5164C53.4893 54.5532 53.3011 54.5667 52.8893 54.6212C52.6272 54.6558 52.6207 54.6444 52.3844 54.6704C52.1073 54.7008 52.1677 54.7033 51.8924 54.7526L49.5762 54.9957C48.2396 55.1195 46.8991 55.247 45.6168 55.5933L42.6577 56.6007C40.1307 57.7243 37.7766 59.2498 35.922 61.3312C35.5697 61.7265 35.3993 61.782 35.1093 62.1965C34.1272 63.6003 33.1442 64.9487 32.4332 66.584L32.4333 66.5841Z" fill="#FF9A7A"/>
<path fill-rule="evenodd" clip-rule="evenodd" d="M25.6988 62.0012C24.6135 64.4977 24.4006 64.7778 23.688 67.3028C23.0048 69.7238 22.9122 71.2524 22.6967 73.671C22.614 74.6001 22.729 75.3111 22.7386 76.2763C22.7448 76.8982 22.79 77.3183 22.893 77.8934L23.1547 79.5731C23.2166 79.8883 23.2394 80.0427 23.2927 80.3577C23.5754 82.0272 24.3872 84.3988 25.1484 85.9189C25.167 85.9559 25.2192 86.0563 25.2377 86.0934C25.8961 87.4103 26.5266 88.7595 27.3914 89.9641C29.5583 92.9823 30.3489 93.744 33.1968 96.2764L34.7056 97.3599C34.9329 97.5332 35.1486 97.7362 35.4218 97.9168C36.8325 98.8496 38.7406 99.7826 40.2406 100.244C41.8786 100.748 42.3243 101.161 44.2088 101.532C45.451 101.776 46.6541 102.083 47.9092 102.14L51.3974 102.21C53.7362 102.325 57.5895 101.289 59.9656 100.8C59.9942 100.794 60.0336 100.784 60.0621 100.778C60.0905 100.772 60.1299 100.762 60.1583 100.756C60.1867 100.75 60.226 100.74 60.2545 100.734L64.2144 99.8717C67.9198 99.1486 71.5985 98.1884 75.2642 97.3071L93.3945 92.7504C93.7037 92.6593 93.8441 92.638 94.1544 92.5497L101.963 90.2747C102.543 90.1037 102.883 89.9535 103.429 89.7391C105.069 89.096 105.19 89.0312 104.335 87.4423C103.746 86.349 103.681 85.7097 102.417 86.1049C102.379 86.1169 102.269 86.1509 102.23 86.1629C102.101 86.2036 102.05 86.2198 101.95 86.2511L57.8519 96.7652C56.572 97.0736 55.4058 97.3116 54.0923 97.604C53.3741 97.7639 52.8591 97.8596 52.1071 97.8887L49.0855 97.9387C48.6939 97.9213 48.384 97.8421 47.9873 97.8129C47.4779 97.7755 47.4182 97.8282 46.9103 97.7413C41.4313 96.8035 37.017 94.3443 33.1835 90.5137C31.221 88.5526 29.8988 86.0285 28.7489 83.5565L28.4053 82.748C27.8115 81.0011 27.5569 79.6656 27.1762 77.8838L26.9877 75.7558C26.9646 75.4552 26.9454 75.5074 26.9354 75.252L27.0204 72.5967C27.0831 71.3392 27.3857 70.3802 27.6355 69.1034C28.3644 65.378 30.2616 62.4365 32.4813 59.5187C32.8891 58.9827 33.6044 58.171 34.0928 57.7529L34.9382 56.9707C35.2346 56.709 35.5597 56.4257 35.8867 56.184C35.9109 56.166 35.9449 56.1448 35.9694 56.1274L36.7847 55.535C37.0906 55.3273 37.3611 55.1264 37.69 54.9049C38.6669 54.2472 39.6111 53.8135 40.6368 53.3341L43.8321 52.1278C44.0201 52.0827 44.0962 52.072 44.3107 52.0119L44.8732 51.8425C46.6305 51.3769 48.582 51.1211 50.3838 50.9232C53.8041 50.5474 57.2513 50.0638 60.6994 49.9554L69.9649 49.5166C70.4583 49.5054 70.6534 49.4762 71.2086 49.4791L79.4279 49.3127C79.9961 49.304 80.0752 49.2641 80.6704 49.2723L94.704 48.9576C95.7462 48.9063 98.7151 48.6424 99.4575 48.7784C99.7253 48.1624 99.7177 45.1299 99.1878 44.8995C98.3632 44.541 93.0198 44.8071 91.6978 44.7875L82.997 45.0626C82.5458 45.093 82.2099 45.0606 81.7515 45.0953L53.6317 46.6561C49.7835 47.0699 46.7376 47.0198 42.8444 48.0236C42.375 48.1446 42.1485 48.222 41.7232 48.372L38.4632 49.6802C37.7052 50.0306 37.1091 50.3125 36.3694 50.7543C35.9917 50.9799 35.7125 51.139 35.3535 51.37L32.435 53.545C31.192 54.6204 29.771 55.7972 28.8387 57.1937C28.2472 58.0796 27.8323 58.4404 27.2121 59.4536C26.7544 60.2012 26.1027 61.0718 25.6987 62.001L25.6988 62.0012Z" fill="#FF9A7A"/>
<path fill-rule="evenodd" clip-rule="evenodd" d="M103.375 61.9173C104.285 59.8257 104.021 60.1411 105.43 58.3474L106.969 56.6651C107.994 55.7688 109.374 54.994 110.625 54.4989L114.774 53.5829C119.703 53.2015 125.149 56.5747 127.168 61.6676L127.571 62.872C127.582 62.9108 127.611 63.023 127.62 63.0625L128.011 65.8449C128.201 69.2655 126.846 72.5963 124.504 75.0875C121.378 78.414 117.007 79.7242 112.501 78.6931C110.462 78.2263 111.512 78.545 109.219 77.5481C108.699 77.3222 108.611 77.1196 108.266 76.8746C106.903 75.9061 107.731 76.6554 106.406 75.4053C105.063 74.1384 104.071 72.5995 103.408 70.9233C103.141 70.2497 103.019 69.6411 102.857 68.9378C102.392 66.9114 102.482 63.9706 103.375 61.9172L103.375 61.9173ZM100.256 59.0563C99.3813 61.0673 98.65 63.0409 98.5848 65.1678C98.5658 65.7836 98.5704 66.189 98.5859 66.7405C98.6482 68.9586 99.0692 71.1953 100.064 73.1845C101.216 75.489 102.567 77.7071 104.724 79.3188C108.32 82.005 110.215 82.5286 114.433 83.0633C114.862 83.1178 114.792 83.1134 115.175 83.0843C118.334 82.8437 116.924 83.0963 120.037 82.3815C120.626 82.2462 120.866 82.1358 121.426 81.9152C122.561 81.4683 124.039 80.6825 125.057 79.9502C125.408 79.6969 125.871 79.3752 126.19 79.1001C128.976 76.6975 130.456 74.0038 131.583 70.4155C131.971 69.1797 132.135 66.864 132.045 65.5143C131.767 61.3795 130.367 58.1462 127.563 54.9053L126.448 53.7713C123.499 51.2253 119.101 49.3393 115.188 49.5766C112.184 49.7588 110.366 50.0555 107.551 51.4871C107.27 51.6302 107.117 51.7205 106.861 51.8665C105.243 52.793 104.539 53.4624 103.252 54.6829C102.096 55.7785 100.893 57.5904 100.256 59.0563L100.256 59.0563Z" fill="#FF9A7A"/>
<path fill-rule="evenodd" clip-rule="evenodd" d="M111.92 73.7572C110.469 73.1263 111.253 70.4579 113.273 71.3363C114.432 71.8403 113.738 74.5477 111.92 73.7572ZM107.782 68.0463C108.589 66.1918 110.851 67.5635 110.297 68.8385C109.419 70.8567 107.185 69.4193 107.782 68.0463ZM117.537 73.6415C116.193 73.057 116.287 71.6454 117.389 71.1342C118.334 70.6952 119.72 71.7363 119.226 72.8712C118.947 73.5151 118.129 73.899 117.537 73.6416L117.537 73.6415ZM113.466 65.7023C114.593 63.1101 118.11 64.7099 117.009 67.2428C116.074 69.3927 112.531 67.8523 113.466 65.7023ZM107.936 62.8469C108.438 61.6933 108.898 61.61 110.06 62.1151C111.035 62.5389 110.436 64.963 108.809 64.5281C108.382 64.414 107.563 63.7057 107.936 62.8469L107.936 62.8469ZM120.338 68.2386C121.29 66.0482 123.432 67.7155 122.933 69.0865C122.357 70.671 119.66 69.7973 120.338 68.2386ZM112.085 59.5347C112.87 57.7279 115.204 58.9344 114.599 60.3269C114.073 61.5371 113.634 61.5625 112.475 61.0587C112.015 60.8586 111.858 60.0566 112.085 59.5347L112.085 59.5347ZM120.42 62.8577C121.054 61.3992 123.719 62.1922 122.841 64.2111C122.609 64.7442 120.836 65.2824 120.365 63.8231C120.26 63.4954 120.252 63.2437 120.42 62.8577L120.42 62.8577ZM117.014 59.2705C118.083 56.813 121.114 59.9623 118.943 60.9707C117.717 61.54 116.533 60.3769 117.014 59.2705ZM105.675 62.1647C105.022 63.6676 104.717 65.1353 104.804 66.3882C104.988 69.0628 105.519 71.0979 107.352 73.1447C109.51 75.5545 112.125 76.8921 115.434 76.8208C116.551 76.7967 117.884 76.5803 118.866 76.2162C120.222 75.7138 122.288 74.4845 123.18 73.3227C124.797 71.2159 124.055 72.4946 125.35 69.5149C126.018 67.9785 125.908 65.2727 125.448 63.6036C125 61.9805 123.785 59.7503 122.509 58.679C120.939 57.3616 121.372 57.5539 119.094 56.5635C117.386 55.8208 117.23 55.9931 115.977 55.8394C111.807 55.3279 107.395 58.2079 105.675 62.1647Z" fill="#FF9A7A"/>
<path fill-rule="evenodd" clip-rule="evenodd" d="M40.4222 70.3585C40.7332 69.6431 41.1845 69.0418 41.5506 68.4312C42.1475 67.436 43.4045 66.2338 44.4176 65.5931C45.3866 64.9803 46.7112 64.3721 47.8199 64.1137C50.9082 63.3937 54.7356 64.1711 57.2265 66.36C58.3856 67.3786 58.7666 67.7763 59.6589 69.1771C59.8931 69.5448 59.8863 69.592 60.0387 69.9713C60.1202 70.1741 60.1494 70.2309 60.2339 70.4188L60.4187 70.8703C62.2165 76.0021 60.0655 81.6107 55.7289 83.9231L55.5541 84.0119C54.5752 84.5009 54.6526 84.5436 53.6764 84.8358C50.1274 85.8981 48.3175 85.3769 45.0441 83.9537C43.4325 83.2531 41.2643 80.8577 40.5649 79.1115L39.7351 76.5019C39.6733 76.1826 39.621 75.9512 39.6027 75.6103C39.5068 73.8226 39.6923 72.0373 40.4222 70.3585L40.4222 70.3585ZM63.0739 80.2065C64.2864 77.4176 64.5678 74.5184 63.9596 71.8873C63.8432 71.3841 63.8458 71.1468 63.66 70.642L63.0045 68.9077C62.4257 67.5809 61.2383 65.6904 60.1869 64.7742C60.0384 64.6447 59.8832 64.5247 59.6963 64.3382C56.0295 60.6791 50.1743 59.7541 45.2871 61.6777C44.0033 62.1829 42.6654 62.8537 41.6016 63.7691C40.5568 64.6682 38.9417 66.2044 38.3515 67.4982C38.0519 68.155 37.7765 68.5355 37.5695 68.9764L36.6704 71.9413C36.5509 72.9541 36.406 73.7034 36.3946 74.6717C36.3575 77.8517 37.8331 81.4827 39.9655 83.857C40.2833 84.2109 40.3903 84.3966 40.8395 84.7711C41.2899 85.1468 41.5456 85.4677 41.9107 85.7124C44.3704 87.3605 43.825 87.011 46.0553 87.8515C48.0117 88.5889 52.011 88.7429 54.0831 87.9976C54.3047 87.9179 54.4038 87.8565 54.6281 87.7838C58.4182 86.5556 61.4477 83.9466 63.0738 80.2064L63.0739 80.2065Z" fill="#FF9A7A"/>
<path fill-rule="evenodd" clip-rule="evenodd" d="M49.9242 75.8436C48.0617 75.0339 49.4294 72.7697 50.7164 73.3293C52.6901 74.1873 51.2749 76.4309 49.9242 75.8436ZM53.1475 65.6592C51.8949 67.526 51.1117 70.0056 50.757 70.478C50.4748 70.8538 50.6956 70.602 50.4821 70.7533C49.7645 70.4695 50.0537 70.5722 49.5362 69.2764C49.2906 68.6615 49.1646 68.314 48.8887 67.6479C48.0828 65.7025 48.3135 65.5559 46.5676 65.9404C45.9417 67.0098 46.0263 67.2189 46.8864 69.0787C47.0987 69.5377 47.9506 71.1668 47.8063 71.6359C47.6043 72.2927 47.7172 71.8498 47.5529 71.9633C46.0225 72.1194 42.6966 68.7648 41.7121 70.7714C41.098 72.0232 42.422 72.4337 43.3995 72.8542C43.735 72.9984 46.3728 74.0271 46.5053 74.3583C46.5062 74.3604 46.87 74.6201 46.1421 75.004C44.9714 75.6214 40.7541 76.1887 41.6018 78.1895C42.1254 79.4254 43.8599 78.4522 44.646 78.127C45.245 77.8792 47.273 76.892 47.775 77.1127C47.7127 78.2327 46.455 80.2957 46.0261 81.5379C45.7962 82.2038 45.9492 82.333 46.0725 82.9023C48.6386 84.2175 47.9499 82.0383 50.0742 78.3184C50.8483 78.5712 50.732 78.6298 51.0954 79.6808C52.1855 82.8346 52.2908 83.7413 54.0891 83.2658C54.6397 82.2401 54.6203 82.3976 54.3252 81.559L53.7941 80.0822C53.2331 78.6125 52.6375 78.001 53.1445 77.1227C55.9567 78.2455 58.3573 79.9733 59.0165 78.2938C59.1652 77.915 59.1952 77.7532 58.9934 77.3146C58.6671 76.6053 55.8632 75.6816 54.9775 75.2799C53.0634 74.4117 55.1378 74.0142 56.9863 73.2715C57.7968 72.9459 59.558 72.6331 59.1592 71.2616C58.428 68.7475 54.5285 72.5635 53.0164 71.8462C52.9899 71.6103 52.9385 71.9247 53.0403 71.4687C53.2766 70.41 55.0521 67.4916 54.7944 66.6817C54.4592 65.6283 53.8044 66.3182 53.8751 65.3737C53.488 65.5863 53.9119 65.3226 53.4861 65.4525C53.0962 65.5713 53.2841 65.3927 53.1475 65.6593L53.1475 65.6592Z" fill="#FF9A7A"/>
<path fill-rule="evenodd" clip-rule="evenodd" d="M166.257 87.9018C166.502 87.3384 166.506 85.7528 165.564 85.3434C164.479 84.8717 163.806 84.8502 162.634 84.8259C161.95 84.8118 161.121 84.7511 160.377 84.6879L149.258 83.8827C148.739 83.8137 148.629 83.8807 148.196 83.8499L147.007 83.7595C145.574 83.7231 144.076 83.4782 142.578 83.4316L134.823 82.9116C133.62 82.9379 132.719 82.3503 131.706 83.5407C131.224 84.106 130.347 86.8211 134.19 86.896L135.378 86.9832C135.798 87.022 135.98 86.9882 136.446 87.0319C136.704 87.0561 136.825 87.0825 136.997 87.1004L139.907 87.298C140.615 87.3433 141.352 87.4236 142.06 87.4408C142.464 87.4505 142.649 87.4835 143.147 87.5382C143.645 87.5929 143.815 87.5572 144.326 87.6005L160.502 88.7309C160.733 88.7338 160.626 88.7017 161.027 88.7349C162.971 88.8954 165.555 89.5183 166.257 87.9018L166.257 87.9018Z" fill="#FF9A7A"/>
<path fill-rule="evenodd" clip-rule="evenodd" d="M139.264 59.3142C138.979 59.9704 138.82 60.1063 139.113 60.9468C139.475 61.9847 140.312 62.1315 141.526 63.1424C142.091 63.6131 142.81 63.9902 143.433 64.4884L162.6 78.1212C164.455 79.3397 166.957 82.1396 168.37 78.8895C169.058 77.306 166.913 76.3276 166.306 75.8223L161.989 72.6992C161.671 72.4612 161.406 72.3176 161.099 72.1058L156.713 69.0098C156.269 68.7195 156.192 68.605 155.82 68.3126L152.271 65.8306C151.896 65.527 152.029 65.5531 151.46 65.2064L141.498 58.3293C140.714 57.9885 139.586 58.5749 139.264 59.3142L139.264 59.3142Z" fill="#FF9A7A"/>
<path fill-rule="evenodd" clip-rule="evenodd" d="M133.416 68.9591C133.028 69.8514 133.309 71.0189 134.164 71.3909L163.523 84.1549C164.926 84.765 166.542 82.6406 165.629 81.1227C165.022 80.1124 151.908 74.7416 150.439 74.103L136.896 68.21C135.565 67.6323 134.124 67.3312 133.416 68.9591L133.416 68.9591Z" fill="#FF9A7A"/>
<path fill-rule="evenodd" clip-rule="evenodd" d="M186.351 94.9822C185.642 96.6129 187.588 97.8495 189.257 99.2903L192.293 102.08C193.084 102.836 194.018 103.629 194.788 104.347L198.438 107.629C199.349 108.49 204.307 113.021 204.755 113.215C205.884 113.706 208.334 112.252 207.234 110.351C206.895 109.764 204.367 107.522 203.746 107.006C201.807 105.397 198.516 102.226 196.411 100.352L190.343 94.8774C189.582 94.2185 188.817 93.0603 187.456 93.796C186.996 94.045 186.652 94.2889 186.351 94.9822L186.351 94.9822Z" fill="#FF9A7A"/>
<path fill-rule="evenodd" clip-rule="evenodd" d="M53.1474 65.6592C52.2984 65.5865 52.2194 66.4107 51.5966 67.8438C51.3941 68.3096 51.1901 68.7742 50.9932 69.2424C50.099 71.3685 50.3666 69.9356 48.7228 66.2493C47.9866 64.5986 45.2194 65.4063 45.8113 67.3963C46.166 68.5885 47.3933 70.8028 47.2831 71.5358C46.0296 70.9908 44.739 70.3847 43.4814 69.8716C42.8558 69.6164 42.3505 69.6663 41.9318 69.9318C41.5 70.2057 41.1615 70.8723 41.1733 71.4244C41.198 72.5729 42.4941 72.9146 43.8665 73.511C44.1864 73.6501 45.5644 74.205 45.7395 74.361C46.2252 74.7933 45.2626 74.9063 44.8908 75.0456C43.9656 75.3922 43.0691 75.7314 42.1656 76.1148C41.7871 76.2754 41.199 76.5935 41.0805 77.2178C41.0221 77.5252 41.241 78.395 41.4512 78.6588C42.7727 80.3175 46.008 77.2743 47.3052 77.7144C46.9299 78.5776 45.2478 81.8294 45.5027 82.6194C45.7072 83.2533 46.2838 83.8426 47.1663 83.7543C49.0246 83.5684 49.1552 80.4072 50.2158 78.9798C50.6481 79.3231 50.6999 79.8075 50.8884 80.2879C51.5806 82.0517 51.8678 83.8544 53.395 83.8591C53.8961 83.8606 54.4274 83.549 54.7021 83.1446C55.1207 82.5281 54.9324 82.0532 54.7627 81.5931L53.6494 78.7799C53.0791 77.3738 53.0192 77.5014 55.6364 78.6272C56.3011 78.9131 56.9225 79.3105 57.2992 79.3935C59.5519 79.8899 60.2401 77.249 58.5558 76.4283C57.3324 75.8321 55.8895 75.2775 54.6227 74.7268C55.5985 73.4978 60.2153 73.6753 59.5411 71.1112C59.4129 70.6239 58.9711 70.1621 58.2305 70.0221C57.1435 69.8167 54.4371 71.6602 53.4618 71.5137C53.8505 69.3922 56.9077 66.6922 53.875 65.3737C53.8043 66.3183 54.4591 65.6283 54.7944 66.6818C55.052 67.4916 53.2765 70.4101 53.0402 71.4687C52.9384 71.9247 52.9898 71.6103 53.0163 71.8462C54.5284 72.5635 58.4279 68.7476 59.1591 71.2616C59.558 72.6331 57.7968 72.9459 56.9862 73.2715C55.1377 74.0142 53.0633 74.4118 54.9774 75.2799C55.8632 75.6816 58.667 76.6053 58.9933 77.3146C59.1951 77.7533 59.1651 77.915 59.0164 78.2939C58.3572 79.9734 55.9566 78.2456 53.1444 77.1228C52.6374 78.001 53.233 78.6126 53.794 80.0822L54.3251 81.5591C54.6203 82.3977 54.6396 82.2401 54.089 83.2659C52.2908 83.7413 52.1854 82.8347 51.0953 79.6809C50.732 78.6299 50.8482 78.5712 50.0741 78.3184C47.9498 82.0384 48.6385 84.2175 46.0724 82.9024C45.9491 82.333 45.7961 82.2038 46.026 81.5379C46.455 80.2957 47.7126 78.2328 47.7749 77.1128C47.2729 76.892 45.2448 77.8792 44.6459 78.127C43.8598 78.4523 42.1253 79.4255 41.6017 78.1896C40.754 76.1888 44.9713 75.6215 46.142 75.0041C46.8699 74.6202 46.5061 74.3605 46.5052 74.3583C46.3728 74.0272 43.7349 72.9985 43.3995 72.8542C42.4219 72.4338 41.0979 72.0233 41.712 70.7715C42.6966 68.7649 46.0223 72.1195 47.5528 71.9634C47.7171 71.8498 47.6042 72.2928 47.8062 71.6359C47.9505 71.1668 47.0986 69.5377 46.8863 69.0788C46.0262 67.219 45.9416 67.0098 46.5675 65.9404C48.3134 65.5559 48.0828 65.7026 48.8886 67.6479C49.1645 68.314 49.2906 68.6616 49.5361 69.2764C50.0537 70.5722 49.7644 70.4696 50.4821 70.7533C50.6955 70.602 50.4748 70.8538 50.757 70.478C51.1116 70.0056 51.8948 67.526 53.1474 65.6592Z" fill="#FF9A7A"/>
</g>
<defs>
<clipPath id="clip0_98_86">
<rect width="257.423" height="104.327" fill="white" transform="translate(41.5962) rotate(23.4975)"/>
</clipPath>
</defs>
</svg>
