<svg width="259" height="208" viewBox="0 0 259 208" fill="none" xmlns="http://www.w3.org/2000/svg">
<g clip-path="url(#clip0_98_58)">
<path fill-rule="evenodd" clip-rule="evenodd" d="M82.5913 112.177C84.4558 113.093 83.0449 115.475 81.6225 114.776C81.2603 114.598 80.9935 114.3 80.8816 113.998C80.2863 112.388 82.1682 111.969 82.5913 112.177L82.5913 112.177ZM81.9829 104.807C81.9835 104.8 81.7609 104.535 82.3176 104.473C82.7856 104.421 84.3609 105.226 84.4801 105.572C84.5594 106.382 83.1059 108.875 82.5853 109.757C81.7729 109.353 81.5935 108.165 81.1242 106.7C80.8038 105.7 80.4722 104.007 78.9731 104.605C77.6922 105.117 78.3196 106.24 78.7802 107.501C79.096 108.365 79.9487 109.95 79.5628 110.845L74.4193 108.47C74.4183 108.469 74.4726 107.995 73.7395 108.582C73.5255 108.753 73.2744 109.083 73.1662 109.509C72.6922 111.374 75.7053 112.177 77.7851 113.199C77.4364 113.599 77.007 113.62 76.5398 113.779C76.2823 113.867 76.1496 113.919 75.8915 113.994L74.1284 114.568C73.335 114.825 73.0438 115.028 72.6206 115.889L67.7703 110.74C67.1915 110.175 66.7164 109.56 66.1007 108.939C65.7542 108.589 65.5867 108.442 65.2857 108.083L57.3145 99.3593C56.9611 98.9865 56.829 98.785 56.549 98.4864C55.967 97.8656 55.5376 97.3987 55.0197 96.7402C54.7569 96.4059 54.5463 96.1905 54.2726 95.8611C53.1511 94.5113 47.788 88.4261 47.9802 87.4926C48.0403 87.2007 48.5783 86.9375 48.8451 86.704L52.886 83.1378C53.5874 83.5018 53.1751 83.3047 53.5852 83.827C54.6974 85.2435 57.2946 87.6974 58.551 89.0399L60.8467 91.1432C61.1992 91.4537 61.3067 91.6134 61.6632 91.8955L65.1036 94.7422C71.9062 99.721 74.2059 100.987 81.983 104.807L81.9829 104.807ZM78.4308 117.206L76.9709 120.178C76.4521 119.909 75.6442 118.946 75.1384 118.432C74.6983 117.985 74.891 118.276 74.6089 117.788C75.24 117.423 76.2492 117.177 76.994 116.923C78.2307 116.501 78.5949 116.103 78.7467 116.554C78.8945 116.994 78.7122 116.633 78.4308 117.205L78.4308 117.206ZM81.8292 117.798C82.3861 118.284 82.5005 119.555 82.7594 120.265L83.0018 120.903C83.2322 121.527 83.3454 122.386 84.0242 122.72C84.854 123.127 85.863 122.732 86.2404 121.963C86.7973 120.829 85.1326 117.946 84.9688 116.727C86.3316 117.043 89.7484 120.142 90.7791 118.043C91.3787 116.822 91.1341 116.05 89.6566 115.333C88.6466 114.844 87.111 114.253 86.5526 113.815C87.4043 112.839 90.6602 112.964 91.35 111.559C91.7443 110.756 91.3965 109.737 90.5936 109.343C89.8953 109 88.6264 109.654 87.9901 109.871C87.3037 110.105 86.0489 110.752 85.3572 110.615C87.4348 106.384 86.6855 106.697 88.4646 107.334L93.1888 108.791C95.0206 109.319 98.3463 110.37 100.115 110.657C100.604 110.737 100.686 110.716 101.219 110.872L117.922 113.291C118.418 113.35 118.518 113.318 118.974 113.352L124.431 113.634C129.798 113.686 135.193 113.678 140.54 113.107L145.215 112.605C148.1 112.113 150.219 111.917 153.333 111.319C153.743 111.241 153.905 111.221 154.31 111.16L154.505 111.129C154.534 111.123 154.573 111.115 154.601 111.109L154.792 111.062C154.977 111.018 155.081 110.99 155.27 110.952C155.65 110.877 155.841 110.823 156.229 110.743C156.442 110.699 156.5 110.697 156.713 110.651L163.718 108.821C163.746 108.815 163.786 108.806 163.814 108.799L175.95 105.087C176.206 105.022 176.272 105.003 176.512 104.922L180.338 103.749C180.366 103.742 180.406 103.732 180.434 103.725L182.226 103.237C182.626 103.138 182.799 103.073 183.167 102.974C183.194 102.966 183.234 102.957 183.262 102.949L193.976 100.509C194.356 100.447 194.574 100.443 194.963 100.382L201.144 99.7634L206.438 99.8685C207.869 99.9513 209.516 100.135 210.872 100.474C211.276 100.575 211.579 100.682 212.002 100.765C212.44 100.851 212.866 100.935 213.234 101.052C217.088 102.278 218.049 102.759 221.759 104.581C224.595 105.974 228.552 109.085 230.597 111.565L232.05 113.235C232.324 113.554 232.261 113.552 232.454 113.819L233.311 114.969C233.496 115.218 233.57 115.331 233.724 115.55L234.834 117.336C235.834 119.06 236.526 120.749 237.259 122.591L237.365 122.865C237.375 122.891 237.388 122.93 237.398 122.957L237.704 123.883C237.713 123.91 237.728 123.948 237.737 123.975C237.746 124.002 237.76 124.04 237.769 124.067L238.355 126.238C238.444 126.719 238.529 127.087 238.645 127.583L239.064 130.326C239.267 132.078 239.338 135.039 239.054 136.825L238.677 139.119C237.828 143.044 237.253 144.402 235.399 148.176C234.063 150.897 232.145 153.102 230.052 155.164C229.762 155.45 229.634 155.499 229.337 155.787C229.093 156.023 229.019 156.123 228.705 156.353C226.987 157.612 225.667 158.738 223.712 159.849L216.812 162.891C216.785 162.9 216.746 162.912 216.719 162.921L215.426 163.363C213.821 163.859 212.202 164.447 210.551 164.785C208.631 165.178 206.784 165.875 204.832 166.155L198.212 167.298C195.939 167.62 192.558 168.084 190.238 168.102C189.83 168.105 190.116 168.095 189.732 168.13L188.005 168.203C185.114 168.35 182.257 168.261 179.353 168.228L175.784 168.04C173.627 167.967 170.68 167.564 168.51 167.269L162.974 166.455C160.736 166.174 157.627 165.368 155.41 164.833C154.927 164.716 154.897 164.755 154.535 164.686L137.801 159.456C137.159 159.222 136.501 158.882 135.751 158.585C135.166 158.353 134.365 158.169 133.768 157.909L121.508 152.197C116.76 149.865 110.911 146.692 106.534 143.699C105.538 143.017 104.563 142.579 103.679 141.89C102.256 140.781 99.6366 139.335 98.225 138.184L91.9602 133.517C91.4869 133.175 91.1746 132.816 90.7382 132.491C90.2907 132.157 89.8469 131.891 89.4924 131.576L79.1484 122.631C79.5249 121.906 79.8176 121.904 80.5519 120.4C80.9756 119.532 81.4034 118.665 81.8292 117.798L81.8292 117.798ZM238.52 153.09C239.914 150.252 242.904 144.828 243.668 141.849C244.463 138.745 245.067 135.464 245.172 132.262L244.99 126.551C244.96 126.225 244.959 126.072 244.927 125.748C244.54 121.762 243.272 117.926 241.676 114.28C241.266 113.342 242.007 115.037 241.598 114.1L240.672 112.354C240.517 112.057 240.534 111.997 240.338 111.643L239.097 109.592C238.901 109.299 238.807 109.246 238.593 108.94C238.417 108.687 238.338 108.546 238.143 108.269C237.913 107.943 237.907 107.905 237.664 107.607C237.484 107.387 237.347 107.229 237.143 106.96L234.331 103.796C234.12 103.579 233.797 103.366 233.617 103.215C232.75 102.484 231.921 101.61 230.858 100.857C227.557 98.5174 223.545 96.2013 219.637 95.0405L215.515 93.838C214.843 93.6618 214.345 93.631 213.63 93.4506C213.009 93.2941 213.197 93.3167 212.646 93.2878L210.714 93.0626C210.223 92.9846 210.213 92.9558 209.743 92.9373L200.59 93.0032L194.371 93.8116C193.996 93.8852 193.858 93.9064 193.493 93.9583C191.185 94.2856 188.943 94.9703 186.659 95.3812C185.198 95.644 183.926 96.158 182.488 96.4522L179.38 97.3152C179.353 97.3233 179.314 97.336 179.287 97.3442L159.951 103.221C159.362 103.397 158.93 103.501 158.36 103.694L157.703 103.883C157.675 103.89 157.635 103.9 157.608 103.906C157.58 103.913 157.54 103.922 157.512 103.929C157.484 103.936 157.445 103.944 157.417 103.951C157.389 103.958 157.349 103.968 157.322 103.975L142.935 107.133C140.598 107.409 138.26 107.847 135.899 107.966C134.627 108.031 133.541 108.098 132.267 108.199C130.403 108.347 128.576 108.282 126.741 108.32L115.468 107.612L104.652 105.525C104.319 105.449 104.087 105.433 103.656 105.324C103.285 105.23 103.067 105.126 102.6 104.949C101.659 104.592 100.716 104.503 99.6329 104.11C98.9591 103.865 98.1481 103.703 97.5716 103.508L93.32 101.925C87.5449 99.5565 81.7853 96.7634 76.36 93.5813L72.615 91.2509C70.7482 90.021 69.0534 88.6939 67.2018 87.531L58.9678 81.1654C57.917 80.3966 55.5033 78.1377 54.3698 77.1673L48.0238 71.0853C47.7288 70.7793 47.7058 70.6981 47.3688 70.3809C45.5347 68.654 41.7858 64.5723 40.3498 62.6727C40.1967 62.4702 40.2975 62.571 40.1159 62.3401L29.6923 48.8864C27.7725 46.1461 25.7115 43.47 23.8948 40.6582L16.2087 29.4662C15.7602 28.8013 14.6099 26.8474 13.9741 26.5173C13.6377 27.2022 13.6297 27.0434 13.6848 27.7501C13.6871 27.7802 13.6909 27.8203 13.6933 27.8503L13.7364 28.3511C13.79 28.7857 13.8279 29.1517 13.8598 29.5462L15.5411 36.3954C15.6816 36.808 15.7673 37.1039 15.9328 37.499L18.8103 44.5586C18.9109 44.788 18.9387 44.8482 19.0285 45.1027C19.2041 45.6007 19.2831 45.7145 19.4904 46.1822L25.6092 60.2804C25.6252 60.3173 25.6704 60.4234 25.6862 60.4603C25.7289 60.5603 25.7663 60.6534 25.7998 60.7308L30.7925 70.8832C30.982 71.2573 31.1821 71.5601 31.3573 71.9276C31.4677 72.1593 31.4608 72.2126 31.6017 72.4628L33.0185 75.0723C35.694 80.0034 38.4872 84.8429 41.4283 89.6257C41.8603 90.3282 42.2835 90.9628 42.6772 91.6738L44.6489 94.7124C44.9192 95.1622 45.1044 95.3553 45.3747 95.805L47.3784 98.8328C49.1311 101.564 51.1659 104.15 53.0536 106.793L61.5941 117.591C61.9127 117.957 62.1475 118.156 62.4593 118.533L65.8621 122.32C67.9236 124.62 70.0791 126.745 72.3297 128.876C72.5517 129.086 72.632 129.219 72.7522 129.35C74.2581 130.998 78.8492 134.867 80.741 136.521C83.1438 138.622 88.6341 143.094 91.1599 144.822L95.8843 148.158C97.6013 149.496 104.263 153.72 106.16 154.652L105.977 155.024L131.244 167.433C131.63 166.99 131.442 167.105 132.041 167.351C134.018 168.16 137.304 169.471 139.117 169.958L143.031 171.155C143.722 171.354 144.436 171.601 144.993 171.771L160.213 175.283C160.528 175.336 160.707 175.315 161.071 175.378L172.987 176.763C173.344 176.775 173.543 176.818 173.837 176.838L176.128 176.905C178.021 177.077 179.931 177.029 181.835 177.01C187.137 176.956 191.903 176.409 197.174 175.737L212.524 172.076C212.903 171.985 213.012 171.953 213.368 171.832L218.02 170.057C218.555 169.805 218.974 169.712 219.56 169.432C221.835 168.346 223.987 167.048 226.155 165.797C226.477 165.611 226.583 165.47 226.894 165.246C229.379 163.456 231.517 161.66 233.668 159.414C235.009 158.014 236.311 156.507 237.387 154.905C237.851 154.214 238.122 153.901 238.52 153.091L238.52 153.09Z" fill="#545AE8"/>
<path fill-rule="evenodd" clip-rule="evenodd" d="M221.637 139.263C220.2 142.189 218.884 143.583 216.693 145.321C216.443 145.52 216.37 145.61 216.127 145.776C215.233 146.39 214.099 147.032 213.08 147.421L209.119 148.503C206.502 148.779 203.218 148.665 200.837 147.496C198.814 146.502 197.745 146.165 196.088 144.683C192.776 141.723 191.118 138.731 190.445 134.135C190.396 133.8 190.423 133.946 190.398 133.635L190.323 132.526C190.341 128.595 191.641 124.207 194.461 121.261C195.045 120.651 195.55 120.152 196.168 119.616L198.922 117.717L205.58 115.778C205.78 115.762 205.982 115.762 206.19 115.752C206.659 115.728 206.857 115.742 207.325 115.754C211.57 115.86 216.521 118.111 219.192 121.334C220.786 123.256 221.204 124.155 222.121 126.211C222.133 126.237 222.151 126.274 222.162 126.3C222.174 126.326 222.192 126.363 222.204 126.389C222.572 127.207 222.899 128.802 223.036 129.713C223.517 132.925 223.157 136.167 221.637 139.263ZM186.103 149.637C185.709 149.444 185.861 148.885 185.779 147.892L185.306 142.28C185.265 141.953 185.27 141.65 185.254 141.37L184.267 129.335C184.215 128.703 184.2 128.034 184.12 127.427L183.484 119.911C184.113 119.548 187.192 119.153 188.212 118.961L190.632 118.501C191.194 118.387 192.54 118.066 193.099 118.176C192.756 118.596 192.528 118.678 192.113 119.215C190.943 120.729 190.673 120.611 189.432 123.139C187.971 126.113 187.294 128.428 187.185 131.742C187.117 133.811 187.55 136.52 188.228 138.499C188.899 140.457 189.829 142.064 190.959 143.753C192.291 145.745 193.867 146.927 195.674 148.33C196.143 148.694 197.263 149.231 197.519 149.556C197.149 149.75 195.331 149.674 194.77 149.655L186.103 149.638L186.103 149.637ZM182.216 149.727C182.001 149.725 181.821 149.701 181.59 149.706C181.324 149.712 181.236 149.72 180.973 149.709C180.218 149.676 177.441 149.841 177.032 149.64C176.631 149.444 176.731 148.913 176.657 148.016L175.952 139.184C175.942 138.987 175.945 138.906 175.939 138.776L174.673 123.227C174.6 122.67 174.478 121.956 174.609 121.394L179.971 120.492C180.24 120.957 180.136 120.83 180.176 121.35L180.279 122.654C180.3 122.9 180.312 122.904 180.326 123.154L181.236 135.009C181.556 137.733 181.844 143.159 182.077 145.96C182.138 146.697 182.413 149.149 182.216 149.727L182.216 149.727ZM173.144 149.73C172.7 149.743 172.293 149.747 171.804 149.729C170.851 149.693 168.233 149.874 167.652 149.646C167.607 149.316 167.599 149.189 167.586 148.843L166.438 134.801C166.355 133.8 165.441 123.858 165.611 123.124C166.144 122.816 168.956 122.391 170.038 122.2C170.594 122.102 170.532 121.999 171.034 122.098C171.282 122.526 171.883 131.646 171.911 132.315C171.937 132.936 171.997 133.401 172.047 134.021L173.159 148.282C173.209 148.877 173.294 149.292 173.144 149.73ZM224.303 141.034C225.244 139.119 225.632 137.557 226.097 135.782C226.484 134.304 226.444 130.964 226.143 129.375L225.091 125.3C224.193 123.393 224.594 123.696 223.142 121.429C221.649 119.098 220.001 117.621 217.705 115.965C216.356 114.991 214.692 114.135 213.105 113.66C211.727 113.247 210.376 112.846 208.98 112.749C205.713 112.524 203.964 112.764 200.655 113.431L185.319 116.224C184.079 116.443 182.966 116.608 181.717 116.846C178.154 117.526 174.524 118.28 170.937 118.791C170.272 118.886 169.848 119.009 169.198 119.134C166.198 119.71 163.139 120.061 160.155 120.731C159.78 120.815 159.703 120.857 159.289 120.914C156.033 121.363 156.141 121.197 156.898 123.211C157.612 125.109 158.186 124.217 160.213 123.924C160.802 123.839 161.482 123.583 162.098 123.705L163.808 146.215C163.846 146.646 164.144 149.276 164.01 149.548C163.785 150.006 163.415 149.763 162.95 149.765L160.678 149.754C159.879 149.744 159.301 149.664 159.329 150.619C159.335 150.856 159.401 151.145 159.431 151.42C159.691 153.824 159.448 153.168 166.257 153.112L172.633 153.066C173.405 153.061 174.044 153.082 174.784 153.023L188.497 152.724C188.775 152.71 188.76 152.725 189.013 152.727C189.274 152.729 189.298 152.721 189.625 152.705L191.768 152.642C192.53 152.575 193.14 152.536 193.891 152.518C194.642 152.5 195.186 152.481 195.923 152.431L202.303 152.093C202.712 152.075 202.9 152.07 203.314 152.035C203.578 152.013 203.583 152.024 203.821 152.009C204.099 151.992 204.039 151.987 204.316 151.95L206.641 151.815C207.982 151.753 209.327 151.688 210.624 151.401L213.626 150.532C216.203 149.527 218.625 148.113 220.574 146.119C220.945 145.741 221.117 145.693 221.426 145.293C222.473 143.936 223.517 142.635 224.303 141.034L224.303 141.034Z" fill="#545AE8"/>
<path fill-rule="evenodd" clip-rule="evenodd" d="M230.818 145.924C232.018 143.481 232.243 143.211 233.072 140.722C233.867 138.335 234.03 136.812 234.358 134.406C234.484 133.482 234.402 132.767 234.437 131.802C234.46 131.18 234.434 130.759 234.358 130.179L234.174 128.489C234.127 128.172 234.111 128.016 234.073 127.699C233.868 126.018 233.167 123.612 232.477 122.058C232.46 122.02 232.413 121.917 232.396 121.879C231.799 120.533 231.232 119.156 230.424 117.913C228.4 114.798 227.645 114 224.918 111.338L223.461 110.186C223.242 110.002 223.036 109.79 222.771 109.596C221.405 108.599 219.543 107.579 218.066 107.048C216.453 106.469 216.027 106.035 214.161 105.577C212.932 105.276 211.744 104.914 210.493 104.798L207.012 104.567C204.681 104.343 200.784 105.2 198.388 105.578C198.359 105.582 198.319 105.59 198.29 105.595C198.262 105.6 198.222 105.608 198.193 105.612C198.164 105.617 198.125 105.625 198.096 105.63L194.1 106.308C190.365 106.858 186.646 107.647 182.943 108.357L164.621 112.068C164.308 112.145 164.167 112.159 163.853 112.233L155.948 114.143C155.359 114.287 155.014 114.422 154.458 114.61C152.79 115.177 152.666 115.236 153.447 116.863C153.984 117.982 154.019 118.624 155.3 118.288C155.339 118.277 155.451 118.249 155.489 118.238C155.62 118.204 155.672 118.19 155.773 118.163L200.312 109.706C201.605 109.458 202.781 109.274 204.106 109.043C204.831 108.916 205.35 108.845 206.103 108.85L209.123 108.941C209.514 108.976 209.82 109.07 210.215 109.117C210.722 109.178 210.784 109.128 211.287 109.239C216.717 110.43 221.012 113.091 224.664 117.095C226.533 119.145 227.737 121.728 228.771 124.251L229.077 125.074C229.589 126.847 229.781 128.193 230.079 129.99L230.168 132.125C230.177 132.426 230.199 132.375 230.197 132.63L229.989 135.279C229.868 136.532 229.521 137.476 229.213 138.74C228.312 142.428 226.28 145.278 223.927 148.09C223.495 148.606 222.743 149.384 222.236 149.779L221.355 150.521C221.047 150.768 220.709 151.036 220.371 151.263C220.346 151.28 220.311 151.299 220.286 151.315L219.444 151.869C219.129 152.063 218.849 152.251 218.51 152.457C217.504 153.068 216.541 153.458 215.494 153.889L212.246 154.946C212.056 154.982 211.98 154.989 211.762 155.039L211.193 155.183C209.416 155.566 207.454 155.731 205.645 155.845C202.211 156.062 198.745 156.385 195.296 156.334L186.02 156.342C185.527 156.33 185.33 156.35 184.776 156.322L176.558 156.107C175.99 156.089 175.909 156.125 175.315 156.089L161.282 155.753C160.238 155.756 157.26 155.882 156.525 155.711C156.229 156.314 156.096 159.344 156.614 159.599C157.422 159.995 162.772 159.977 164.091 160.058L172.795 160.187C173.248 160.177 173.582 160.225 174.041 160.212L202.203 159.957C206.066 159.722 209.107 159.914 213.042 159.092C213.517 158.992 213.746 158.926 214.178 158.796L217.495 157.64C218.269 157.325 218.877 157.071 219.637 156.664C220.025 156.456 220.311 156.31 220.68 156.096L223.696 154.059C224.988 153.042 226.462 151.933 227.458 150.581C228.09 149.724 228.521 149.382 229.188 148.399C229.68 147.673 230.371 146.834 230.818 145.925L230.818 145.924Z" fill="#545AE8"/>
<path fill-rule="evenodd" clip-rule="evenodd" d="M153.221 142.405C152.216 144.452 152.494 144.149 151.003 145.876L149.387 147.485C148.322 148.332 146.908 149.042 145.635 149.479L141.448 150.202C136.506 150.354 131.223 146.732 129.442 141.551L129.095 140.329C129.086 140.289 129.062 140.176 129.055 140.136L128.794 137.339C128.763 133.913 130.271 130.648 132.726 128.269C136.003 125.091 140.43 123.985 144.883 125.224C146.899 125.785 145.865 125.418 148.109 126.52C148.618 126.77 148.696 126.976 149.029 127.237C150.346 128.267 149.554 127.481 150.819 128.791C152.102 130.119 153.022 131.702 153.606 133.407C153.841 134.092 153.935 134.706 154.064 135.416C154.435 137.462 154.208 140.395 153.221 142.405L153.221 142.405ZM156.205 145.407C157.171 143.439 157.993 141.502 158.157 139.38C158.205 138.766 158.219 138.361 158.229 137.809C158.27 135.59 157.953 133.337 157.051 131.303C156.007 128.948 154.761 126.669 152.681 124.959C149.214 122.109 147.345 121.498 143.156 120.769C142.73 120.694 142.8 120.702 142.416 120.713C139.249 120.807 140.669 120.62 137.527 121.19C136.932 121.298 136.687 121.397 136.117 121.591C134.963 121.985 133.45 122.701 132.399 123.386C132.036 123.622 131.56 123.922 131.228 124.182C128.333 126.453 126.73 129.075 125.438 132.607C124.993 133.824 124.721 136.129 124.749 137.482C124.835 141.625 126.083 144.92 128.734 148.287L129.795 149.472C132.623 152.152 136.929 154.24 140.848 154.184C143.857 154.142 145.688 153.93 148.566 152.63C148.854 152.5 149.011 152.417 149.272 152.283C150.932 151.433 151.666 150.797 153.009 149.637C154.214 148.596 155.5 146.842 156.205 145.407L156.205 145.407Z" fill="#545AE8"/>
<path fill-rule="evenodd" clip-rule="evenodd" d="M145.235 130.181C146.655 130.879 145.748 133.508 143.77 132.537C142.636 131.98 143.455 129.307 145.235 130.181ZM149.103 136.078C148.212 137.893 146.015 136.418 146.628 135.17C147.598 133.195 149.763 134.734 149.103 136.078ZM139.618 130.036C140.934 130.682 140.774 132.088 139.65 132.548C138.685 132.942 137.349 131.838 137.895 130.727C138.204 130.097 139.039 129.752 139.618 130.036L139.618 130.036ZM143.317 138.156C142.071 140.693 138.631 138.932 139.849 136.453C140.882 134.348 144.35 136.051 143.317 138.156ZM148.708 141.265C148.153 142.394 147.69 142.456 146.553 141.897C145.599 141.429 146.309 139.035 147.914 139.545C148.335 139.678 149.121 140.424 148.708 141.265L148.708 141.265ZM136.57 135.303C135.517 137.447 133.455 135.682 134.017 134.336C134.665 132.78 137.319 133.778 136.57 135.303ZM144.41 144.381C143.542 146.149 141.266 144.836 141.935 143.473C142.517 142.288 142.957 142.283 144.091 142.84C144.542 143.062 144.661 143.87 144.41 144.381L144.41 144.381ZM136.238 140.675C135.537 142.102 132.912 141.186 133.883 139.21C134.139 138.689 135.935 138.233 136.338 139.713C136.428 140.045 136.424 140.297 136.238 140.675L136.238 140.675ZM139.474 144.416C138.293 146.821 135.411 143.535 137.626 142.628C138.877 142.116 140.006 143.333 139.474 144.416ZM150.935 142.051C151.658 140.58 152.03 139.128 152.002 137.872C151.941 135.192 151.505 133.135 149.769 131.005C147.725 128.498 145.176 127.04 141.867 126.958C140.749 126.93 139.408 127.085 138.41 127.403C137.033 127.842 134.912 128.974 133.967 130.093C132.254 132.122 133.055 130.88 131.622 133.796C130.884 135.3 130.868 138.008 131.25 139.696C131.622 141.339 132.732 143.623 133.958 144.752C135.465 146.141 135.041 145.929 137.271 147.024C138.943 147.845 139.106 147.68 140.351 147.892C144.492 148.596 149.033 145.924 150.935 142.051Z" fill="#545AE8"/>
<path fill-rule="evenodd" clip-rule="evenodd" d="M216.498 136.893C216.154 137.593 215.675 138.173 215.281 138.766C214.639 139.732 213.327 140.875 212.286 141.468C211.289 142.035 209.938 142.581 208.818 142.788C205.7 143.364 201.913 142.41 199.526 140.108C198.416 139.036 198.053 138.622 197.227 137.181C197.01 136.803 197.019 136.756 196.885 136.37C196.812 136.163 196.786 136.105 196.71 135.914L196.547 135.454C194.989 130.245 197.398 124.742 201.837 122.633L202.016 122.552C203.016 122.109 202.941 122.063 203.93 121.816C207.524 120.92 209.308 121.525 212.512 123.098C214.089 123.873 216.144 126.366 216.761 128.143L217.469 130.788C217.516 131.11 217.558 131.344 217.56 131.685C217.573 133.475 217.305 135.25 216.498 136.893L216.498 136.893ZM194.327 126.005C192.987 128.734 192.571 131.618 193.057 134.274C193.15 134.782 193.136 135.019 193.298 135.532L193.873 137.295C194.389 138.647 195.488 140.59 196.495 141.554C196.638 141.691 196.787 141.818 196.965 142.013C200.458 145.838 206.264 147.034 211.236 145.339C212.541 144.894 213.909 144.286 215.014 143.421C216.099 142.571 217.784 141.111 218.434 139.846C218.763 139.204 219.056 138.837 219.283 138.406L220.319 135.486C220.485 134.48 220.665 133.738 220.721 132.771C220.906 129.596 219.6 125.901 217.58 123.43C217.279 123.062 217.181 122.872 216.75 122.477C216.317 122.08 216.077 121.748 215.723 121.487C213.343 119.726 213.871 120.101 211.682 119.158C209.762 118.33 205.774 117.991 203.67 118.639C203.445 118.709 203.343 118.765 203.116 118.827C199.273 119.879 196.125 122.344 194.327 126.005L194.327 126.005Z" fill="#545AE8"/>
<path fill-rule="evenodd" clip-rule="evenodd" d="M207.261 130.973C209.083 131.868 207.612 134.067 206.353 133.448C204.421 132.499 205.939 130.324 207.261 130.973ZM203.568 140.997C204.906 139.19 205.804 136.75 206.18 136.294C206.479 135.932 206.247 136.173 206.467 136.032C207.171 136.349 206.887 136.233 207.343 137.551C207.56 138.177 207.67 138.53 207.915 139.208C208.629 141.189 208.392 141.324 210.154 141.021C210.829 139.982 210.754 139.769 209.981 137.872C209.79 137.403 209.015 135.736 209.181 135.274C209.413 134.628 209.28 135.065 209.449 134.959C210.985 134.874 214.152 138.38 215.228 136.421C215.9 135.199 214.597 134.727 213.639 134.262C213.311 134.102 210.724 132.952 210.607 132.615C210.606 132.613 210.255 132.337 211 131.987C212.198 131.425 216.437 131.054 215.683 129.016C215.217 127.757 213.439 128.649 212.639 128.937C212.029 129.157 209.957 130.049 209.466 129.805C209.581 128.689 210.932 126.687 211.419 125.466C211.679 124.811 211.532 124.675 211.436 124.101C208.933 122.668 209.52 124.877 207.226 128.494C206.464 128.206 206.583 128.152 206.269 127.086C205.326 123.885 205.263 122.974 203.444 123.366C202.847 124.365 202.873 124.208 203.129 125.06L203.591 126.56C204.084 128.054 204.65 128.692 204.103 129.546C201.346 128.294 199.028 126.457 198.292 128.104C198.126 128.475 198.088 128.635 198.269 129.083C198.562 129.807 201.32 130.859 202.187 131.302C204.058 132.258 201.968 132.559 200.087 133.215C199.262 133.502 197.488 133.733 197.823 135.122C198.437 137.667 202.509 134.036 203.986 134.823C204.002 135.06 204.068 134.748 203.945 135.199C203.66 136.245 201.751 139.078 201.971 139.899C202.257 140.967 202.943 140.308 202.828 141.248C203.225 141.054 202.789 141.298 203.22 141.188C203.615 141.087 203.419 141.257 203.568 140.997L203.568 140.997Z" fill="#545AE8"/>
<path fill-rule="evenodd" clip-rule="evenodd" d="M91.612 113.531C91.3412 114.083 91.2642 115.666 92.1858 116.119C93.2477 116.641 93.9194 116.693 95.0892 116.772C95.7715 116.818 96.5965 116.917 97.337 117.014L108.407 118.335C108.922 118.428 109.035 118.366 109.466 118.417L110.649 118.562C112.079 118.665 113.564 118.979 115.058 119.095L122.781 119.974C123.984 120.004 124.857 120.633 125.924 119.49C126.431 118.948 127.434 116.277 123.598 116.024L122.415 115.881C121.997 115.823 121.815 115.848 121.351 115.783C121.094 115.747 120.975 115.715 120.803 115.689L117.906 115.357C117.201 115.279 116.468 115.164 115.762 115.114C115.359 115.086 115.176 115.044 114.68 114.966C114.186 114.889 114.014 114.917 113.506 114.85L97.4001 112.97C97.1688 112.956 97.2747 112.993 96.8749 112.942C94.9413 112.691 92.3889 111.949 91.6119 113.531L91.612 113.531Z" fill="#545AE8"/>
<path fill-rule="evenodd" clip-rule="evenodd" d="M117.25 143.34C117.565 142.698 117.73 142.57 117.477 141.716C117.163 140.663 116.334 140.477 115.168 139.411C114.625 138.915 113.925 138.505 113.325 137.978L94.8114 123.471C93.0149 122.168 90.6459 119.255 89.0836 122.436C88.3225 123.986 90.4206 125.063 91.0028 125.595L95.171 128.915C95.4771 129.168 95.7356 129.324 96.032 129.549L100.27 132.846C100.7 133.156 100.771 133.274 101.129 133.583L104.559 136.228C104.92 136.548 104.789 136.516 105.341 136.889L114.973 144.22C115.74 144.597 116.894 144.064 117.25 143.34L117.25 143.34Z" fill="#545AE8"/>
<path fill-rule="evenodd" clip-rule="evenodd" d="M123.539 133.977C123.968 133.104 123.742 131.924 122.905 131.513L94.1698 117.401C92.7962 116.726 91.0837 118.774 91.925 120.332C92.4851 121.37 105.336 127.343 106.773 128.049L120.028 134.564C121.331 135.203 122.757 135.57 123.539 133.977L123.539 133.977Z" fill="#545AE8"/>
<path fill-rule="evenodd" clip-rule="evenodd" d="M71.8689 105.526C72.6528 103.93 70.766 102.605 69.165 101.088L66.2622 98.161C65.5075 97.3682 64.6104 96.5336 63.8746 95.7798L60.3815 92.3325C59.5109 91.4301 54.7685 86.6744 54.3302 86.4592C53.2251 85.9164 50.7103 87.2556 51.7206 89.2055C52.0325 89.8076 54.4532 92.1644 55.0503 92.7086C56.9122 94.4054 60.0525 97.7255 62.0684 99.6954L67.8757 105.446C68.6052 106.139 69.3158 107.332 70.7093 106.66C71.1809 106.433 71.5357 106.205 71.8689 105.526L71.8689 105.526Z" fill="#545AE8"/>
<path fill-rule="evenodd" clip-rule="evenodd" d="M203.568 140.997C204.413 141.109 204.53 140.289 205.219 138.887C205.443 138.431 205.668 137.976 205.886 137.518C206.878 135.435 206.544 136.854 208.016 140.613C208.674 142.296 211.476 141.617 210.977 139.602C210.678 138.395 209.555 136.126 209.699 135.399C210.926 136.001 212.187 136.667 213.419 137.237C214.032 137.521 214.54 137.495 214.97 137.249C215.414 136.996 215.783 136.345 215.797 135.793C215.826 134.645 214.547 134.244 213.204 133.584C212.89 133.43 211.54 132.812 211.372 132.648C210.907 132.194 211.874 132.126 212.252 132.004C213.192 131.7 214.103 131.403 215.023 131.062C215.409 130.919 216.011 130.629 216.158 130.011C216.231 129.706 216.053 128.827 215.855 128.554C214.612 126.836 211.239 129.726 209.963 129.226C210.378 128.381 212.21 125.211 211.992 124.41C211.817 123.767 211.268 123.152 210.382 123.199C208.518 123.298 208.24 126.45 207.115 127.827C206.699 127.464 206.669 126.977 206.504 126.489C205.894 124.695 205.691 122.881 204.165 122.805C203.665 122.78 203.12 123.067 202.826 123.458C202.38 124.055 202.546 124.538 202.694 125.005L203.675 127.867C204.18 129.298 204.246 129.173 201.684 127.927C201.033 127.611 200.431 127.185 200.058 127.085C197.831 126.484 197.021 129.091 198.665 129.989C199.86 130.641 201.275 131.262 202.515 131.871C201.484 133.053 196.88 132.662 197.434 135.254C197.54 135.747 197.96 136.229 198.693 136.403C199.769 136.659 202.558 134.943 203.526 135.134C203.039 137.235 199.86 139.791 202.828 141.248C202.943 140.308 202.257 140.967 201.971 139.899C201.751 139.078 203.66 136.245 203.945 135.199C204.068 134.748 204.002 135.06 203.986 134.823C202.509 134.036 198.437 137.667 197.823 135.122C197.488 133.733 199.262 133.502 200.087 133.215C201.968 132.559 204.058 132.258 202.187 131.302C201.32 130.859 198.562 129.807 198.269 129.083C198.088 128.635 198.126 128.475 198.292 128.104C199.028 126.457 201.346 128.294 204.103 129.546C204.65 128.692 204.084 128.054 203.591 126.559L203.129 125.06C202.874 124.208 202.847 124.365 203.445 123.366C205.263 122.974 205.326 123.885 206.269 127.086C206.583 128.152 206.464 128.206 207.226 128.494C209.52 124.877 208.933 122.668 211.436 124.101C211.532 124.675 211.679 124.811 211.419 125.466C210.933 126.687 209.581 128.689 209.466 129.805C209.958 130.049 212.029 129.157 212.639 128.937C213.439 128.648 215.217 127.757 215.683 129.016C216.437 131.054 212.198 131.425 211 131.987C210.255 132.337 210.606 132.613 210.607 132.615C210.724 132.952 213.311 134.102 213.64 134.262C214.597 134.727 215.9 135.199 215.229 136.421C214.152 138.379 210.985 134.874 209.449 134.959C209.28 135.065 209.413 134.628 209.181 135.274C209.015 135.736 209.791 137.403 209.981 137.872C210.754 139.769 210.829 139.982 210.154 141.021C208.392 141.324 208.629 141.189 207.915 139.208C207.67 138.53 207.56 138.177 207.344 137.551C206.887 136.233 207.171 136.349 206.467 136.032C206.247 136.173 206.479 135.932 206.18 136.294C205.804 136.75 204.906 139.19 203.568 140.997Z" fill="#545AE8"/>
</g>
<defs>
<clipPath id="clip0_98_58">
<rect width="257.423" height="104.327" fill="white" transform="translate(212.061 207.121) rotate(-153.844)"/>
</clipPath>
</defs>
</svg>
