<svg width="19" height="20" viewBox="0 0 19 20" fill="none" xmlns="http://www.w3.org/2000/svg">
<path fill-rule="evenodd" clip-rule="evenodd" d="M16.4512 12.8597H17.403V14.734H16.4512V12.8597ZM0.99712 12.8597H1.94885V14.734H0.99712V12.8597ZM15.4542 13.0381V14.6448C15.4542 15.2559 15.8188 15.7158 16.4513 15.7158V17.6795C15.5257 17.8918 14.0937 18.1107 13.1011 18.3077L10.5859 18.7763C10.3164 18.8236 9.93174 18.9239 9.69863 18.929V11.3422C9.95176 11.3422 12.7159 10.7987 13.0714 10.7363L15.5944 10.2753C15.8406 10.2272 16.1861 10.1373 16.4512 10.1373V11.8778C15.8472 12.0163 15.4542 12.2174 15.4542 13.0381L15.4542 13.0381ZM1.94885 10.1373C2.21407 10.1373 2.55958 10.2273 2.80566 10.2754C3.0816 10.3292 3.35044 10.3726 3.64445 10.4312L7.00556 11.0487C7.29572 11.0996 7.57303 11.1511 7.84471 11.2042C8.09085 11.2523 8.43635 11.3422 8.70151 11.3422V18.929L1.94885 17.6794V15.7158C2.2543 15.7158 2.48249 15.627 2.68164 15.411C3.07591 14.9832 2.94585 13.7805 2.94585 13.0381C2.94585 12.2174 2.55282 12.0163 1.94879 11.8778V10.1373L1.94885 10.1373ZM7.16062 10.048C7.47715 10.048 7.60289 10.0034 7.93104 10.0034H10.469C10.7972 10.0034 10.9229 10.048 11.2394 10.048C11.1293 10.1168 10.8906 10.1505 10.7738 10.1698C10.5798 10.2019 10.4277 10.23 10.2765 10.2602C10.1021 10.2951 9.9216 10.3214 9.77738 10.3488C8.82304 10.5304 9.29749 10.4479 8.20301 10.2712C8.0243 10.2424 7.28257 10.1243 7.16062 10.0481V10.048ZM5.34782 4.82656C5.34782 2.68463 7.11476 0.988536 8.97343 0.988536C10.2284 0.988536 11.0589 1.23955 11.9534 2.11531C13.2403 3.37531 13.4279 5.48888 12.3537 6.9503C11.931 7.52538 11.4312 7.90407 10.787 8.21904C10.5919 8.31444 10.3347 8.40155 10.0798 8.45979C9.27135 8.64446 8.37799 8.58506 7.6433 8.23392C6.29457 7.58922 5.34788 6.37106 5.34788 4.82656H5.34782ZM4.35076 4.64807C4.35076 6.23447 4.95568 7.39521 5.99303 8.34163C6.18987 8.52117 6.79912 8.95949 7.06996 9.02163V9.1109C6.27502 9.1109 5.21408 9.69107 5.21183 9.69107C4.8502 9.69107 2.37643 9.18798 1.90376 9.11055C1.25884 9.00494 0.945925 8.97133 0.951435 9.9139C0.955287 10.5682 0.951732 11.2235 0.951732 11.8778C0.41282 12.0015 0 12.2595 0 12.9043V14.7786C0 15.2796 0.429055 15.7158 0.951732 15.7158V17.9919C0.951732 18.1761 1.01827 18.3529 1.11847 18.4525C1.28148 18.6143 2.38638 18.7649 2.65468 18.8141L9.15462 20.0001C9.45273 20.0001 10.9752 19.701 11.3565 19.6245C12.1023 19.475 12.7854 19.3726 13.5319 19.2229L16.7749 18.623C17.2002 18.5555 17.4482 18.4669 17.4482 17.9918V15.7158C17.9709 15.7158 18.4 15.2795 18.4 14.7786V12.9042C18.4 12.2594 17.9871 12.0014 17.4482 11.8778C17.4482 11.253 17.4468 10.628 17.4483 10.0033C17.4516 8.66127 17.0639 9.02268 14.9294 9.3974C14.5693 9.46059 13.5359 9.69095 13.2788 9.69095C13.1464 9.69095 12.5281 9.38123 12.3785 9.3279C12.1389 9.24248 11.658 9.11079 11.33 9.11079V9.02151C11.9306 8.88375 12.8358 7.98284 13.2064 7.4329C14.5067 5.50376 14.2526 2.9895 12.7016 1.46752L12.0743 0.924936C11.8503 0.772469 11.5928 0.599931 11.3464 0.481366C10.0047 -0.164092 8.43452 -0.152014 7.08424 0.466954C6.65975 0.661548 6.38049 0.896169 6.05359 1.14789C5.18511 1.81663 4.35076 3.24665 4.35076 4.64796V4.64807Z" fill="#767676"/>
</svg>
